<svg xmlns="http://www.w3.org/2000/svg" xmlns:xlink="http://www.w3.org/1999/xlink" width="1056" height="816" viewBox="0 0 792 612"><g data-name="P"><clipPath id="a"><path transform="matrix(1 0 0 -1 0 612)" d="M51.36 525.48h668.52v10.92H51.36z" fill-rule="evenodd"/></clipPath><g clip-path="url(#a)"><symbol id="b"><path d="M.483.582A.175.175 0 0 0 .48.542a.02.02 0 0 0-.007-.01A.012.012 0 0 0 .464.53H.306V.02A.013.013 0 0 0 .303.013a.02.02 0 0 0-.01-.007.266.266 0 0 0-.102 0 .024.024 0 0 0-.01.007.014.014 0 0 0-.004.009V.53H.02a.012.012 0 0 0-.008.003.023.023 0 0 0-.006.009A.078.078 0 0 0 0 .558a.262.262 0 0 0 0 .049.068.068 0 0 0 .004.016.019.019 0 0 0 .006.009.012.012 0 0 0 .008.003h.445A.012.012 0 0 0 .472.632.017.017 0 0 0 .48.623.18.18 0 0 0 .484.582z"/></symbol><symbol id="c"><path d="M.132.02A.014.014 0 0 0 .13.01.023.023 0 0 0 .12.006a.248.248 0 0 0-.097 0 .023.023 0 0 0-.01.006A.014.014 0 0 0 .01.02v.434C.01.457.01.46.012.462a.02.02 0 0 0 .01.007.079.079 0 0 0 .019.004A.248.248 0 0 0 .119.47.02.02 0 0 0 .13.462.012.012 0 0 0 .132.454V.02m.01.583C.142.578.137.56.126.55.116.541.098.537.07.537.043.537.024.542.014.551.004.56 0 .576 0 .6c0 .024.005.04.015.05.01.01.029.015.056.015C.1.666.117.661.127.652c.01-.01.015-.026.015-.05z"/></symbol><symbol id="d"><path d="M.428.258C.428.243.424.232.418.225A.035.035 0 0 0 .39.215H.125A.19.19 0 0 1 .131.163.103.103 0 0 1 .152.125.095.095 0 0 1 .19.101.161.161 0 0 1 .244.093a.323.323 0 0 1 .129.025.053.053 0 0 0 .019.005L.399.12C.4.12.403.118.404.115A.167.167 0 0 0 .407.064L.405.05A.035.035 0 0 0 .402.04.033.033 0 0 0 .397.036.055.055 0 0 0 .38.025a.297.297 0 0 0-.087-.02.395.395 0 0 0-.162.01.181.181 0 0 0-.073.044.187.187 0 0 0-.044.075A.359.359 0 0 0 0 .241c0 .038.005.073.015.104.01.031.025.058.044.08.02.021.043.038.07.05A.243.243 0 0 0 .222.49.242.242 0 0 0 .315.475.167.167 0 0 0 .416.363.295.295 0 0 0 .428.278v-.02m-.12.035a.124.124 0 0 1-.02.082C.273.395.25.405.219.405a.09.09 0 0 1-.04-.01.085.085 0 0 1-.03-.023.111.111 0 0 1-.017-.036.18.18 0 0 1-.007-.043h.184z"/></symbol><symbol id="e"><path d="M.28.415A.345.345 0 0 0 .276.368C.275.364.273.361.27.36A.012.012 0 0 0 .263.357a.03.03 0 0 0-.01.001.146.146 0 0 1-.04.01.052.052 0 0 1-.02-.005A.084.084 0 0 1 .17.351.176.176 0 0 1 .148.327.416.416 0 0 1 .123.291V.02A.014.014 0 0 0 .12.01.023.023 0 0 0 .11.006a.248.248 0 0 0-.097 0 .023.023 0 0 0-.01.006A.014.014 0 0 0 0 .02v.435c0 .003 0 .006.002.008a.017.017 0 0 0 .01.007l.015.003a.184.184 0 0 0 .052 0A.051.051 0 0 0 .094.47.017.017 0 0 0 .103.463.014.014 0 0 0 .105.455V.401a.33.33 0 0 0 .061.065c.01.006.018.01.027.013a.1.1 0 0 0 .041.003L.25.479A.068.068 0 0 0 .27.471.012.012 0 0 0 .275.466.032.032 0 0 0 .278.458L.279.442V.415z"/></symbol><symbol id="f"><path d="M.389.049c0-.01 0-.017-.002-.024A.053.053 0 0 0 .383.01.019.019 0 0 0 .377.002.013.013 0 0 0 .369 0H.021C.018 0 .015 0 .013.002A.023.023 0 0 0 .007.01a.067.067 0 0 0-.004.015.231.231 0 0 0 0 .047.068.068 0 0 0 .003.016.022.022 0 0 0 .007.008A.012.012 0 0 0 .02.1h.117V.51L.037.454A.083.083 0 0 0 .018.447C.014.447.01.447.007.45A.028.028 0 0 0 0 .465a.217.217 0 0 0 .002.06.024.024 0 0 0 .005.01.061.061 0 0 0 .01.007L.153.63A.017.017 0 0 0 .16.633a.517.517 0 0 0 .097 0C.26.632.263.63.264.628A.013.013 0 0 0 .266.621V.1H.37A.012.012 0 0 0 .377.096.017.017 0 0 0 .383.088.046.046 0 0 0 .387.072.155.155 0 0 0 .39.05z"/></symbol><symbol id="g"><path d="M.145.077C.145.047.14.026.129.016.119.006.099 0 .072 0 .045 0 .026.005.016.015.006.025 0 .045 0 .074c0 .03.005.05.016.061.01.01.03.016.057.016C.1.15.12.146.13.135.14.125.145.105.145.077z"/></symbol><use xlink:href="#b" transform="matrix(9.24 0 0 -9.24 688.234 84.027)" fill="#c00000"/><use xlink:href="#c" transform="matrix(9.24 0 0 -9.24 693.236 84.027)" fill="#c00000"/><use xlink:href="#d" transform="matrix(9.24 0 0 -9.24 695.36 84.104)" fill="#c00000"/><use xlink:href="#e" transform="matrix(9.24 0 0 -9.24 700.243 84.027)" fill="#c00000"/><use xlink:href="#f" transform="matrix(9.24 0 0 -9.24 703.622 84)" fill="#c00000"/><use xlink:href="#g" transform="matrix(9.24 0 0 -9.24 708.203 84.059)" fill="#c00000"/><use xlink:href="#f" transform="matrix(9.24 0 0 -9.24 710.802 84)" fill="#c00000"/></g></g><g data-name="P"><clipPath id="h"><path transform="matrix(1 0 0 -1 0 612)" d="M51.36 466.06h668.52v10.92H51.36z" fill-rule="evenodd"/></clipPath><g clip-path="url(#h)"><symbol id="i"><path d="M.424.052a.175.175 0 0 0-.005-.04.02.02 0 0 0-.006-.01A.016.016 0 0 0 .403 0H.042C.033 0 .027 0 .022.002a.025.025 0 0 0-.013.007.04.04 0 0 0-.007.017.216.216 0 0 0 0 .055.073.073 0 0 0 .005.02.093.093 0 0 0 .01.018l.016.02.11.116A.593.593 0 0 1 .225.37a.185.185 0 0 1 .02.08.085.085 0 0 1-.02.055A.064.064 0 0 1 .2.521a.092.092 0 0 1-.035.006A.165.165 0 0 1 .113.52.243.243 0 0 1 .046.487C.04.482.033.479.03.479A.012.012 0 0 0 .02.482a.023.023 0 0 0-.005.01.348.348 0 0 0-.001.078.034.034 0 0 0 .004.01.05.05 0 0 0 .008.01.255.255 0 0 0 .063.032.363.363 0 0 0 .113.021A.263.263 0 0 0 .289.63.166.166 0 0 0 .35.596.134.134 0 0 0 .386.543.173.173 0 0 0 .398.478a.234.234 0 0 0-.03-.125.527.527 0 0 0-.052-.077A1.253 1.253 0 0 0 .226.18L.154.104h.249A.014.014 0 0 0 .41.101a.022.022 0 0 0 .007-.01.054.054 0 0 0 .004-.015.16.16 0 0 0 .002-.024z"/></symbol><use xlink:href="#b" transform="matrix(9.24 0 0 -9.24 688.234 143.447)" fill="#c00000"/><use xlink:href="#c" transform="matrix(9.24 0 0 -9.24 693.236 143.447)" fill="#c00000"/><use xlink:href="#d" transform="matrix(9.24 0 0 -9.24 695.36 143.524)" fill="#c00000"/><use xlink:href="#e" transform="matrix(9.24 0 0 -9.24 700.243 143.447)" fill="#c00000"/><use xlink:href="#f" transform="matrix(9.24 0 0 -9.24 703.622 143.42)" fill="#c00000"/><use xlink:href="#g" transform="matrix(9.24 0 0 -9.24 708.203 143.479)" fill="#c00000"/><use xlink:href="#i" transform="matrix(9.24 0 0 -9.24 710.531 143.42)" fill="#c00000"/></g></g><g data-name="P"><clipPath id="j"><path transform="matrix(1 0 0 -1 0 612)" d="M51.36 57h668.52v500.04H51.36z" fill-rule="evenodd"/></clipPath><g clip-path="url(#j)"><symbol id="k"><path d="M.433.443A.25.25 0 0 0 .416.349a.184.184 0 0 0-.048-.07A.215.215 0 0 0 .29.237.358.358 0 0 0 .18.222H.128V.021A.013.013 0 0 0 .125.01a.02.02 0 0 0-.01-.006.271.271 0 0 0-.102 0 .02.02 0 0 0-.01.007A.014.014 0 0 0 0 .02v.568c0 .015.004.027.012.034a.044.044 0 0 0 .031.012h.15a.438.438 0 0 0 .09-.01.205.205 0 0 0 .108-.059.157.157 0 0 0 .03-.054.21.21 0 0 0 .012-.07M.298.435c0 .022-.004.04-.011.054a.08.08 0 0 1-.03.032.092.092 0 0 1-.035.013.247.247 0 0 1-.039.003H.128V.32h.058c.02 0 .038.003.051.009a.09.09 0 0 1 .055.058c.004.014.006.03.006.046z"/></symbol><symbol id="l"><path d="M.467.25A.333.333 0 0 0 .452.148a.198.198 0 0 0-.12-.13A.28.28 0 0 0 .229 0a.288.288 0 0 0-.101.016.182.182 0 0 0-.113.123A.352.352 0 0 0 0 .24c0 .037.005.071.015.102C.025.373.04.4.06.422c.02.022.044.04.074.051a.28.28 0 0 0 .105.018A.29.29 0 0 0 .34.475.173.173 0 0 0 .411.43.193.193 0 0 0 .453.353.354.354 0 0 0 .467.25M.34.245a.302.302 0 0 1-.005.06.136.136 0 0 1-.017.047.086.086 0 0 1-.033.03.103.103 0 0 1-.05.012.106.106 0 0 1-.048-.01.083.083 0 0 1-.034-.03.14.14 0 0 1-.02-.046.31.31 0 0 1-.001-.121A.15.15 0 0 1 .149.14.086.086 0 0 1 .182.11a.109.109 0 0 1 .05-.01C.251.098.267.1.281.107a.089.089 0 0 1 .033.03.134.134 0 0 1 .02.045.275.275 0 0 1 .006.062z"/></symbol><symbol id="m"><path d="M.308.07A.145.145 0 0 0 .305.035.036.036 0 0 0 .298.02.044.044 0 0 0 .285.012.171.171 0 0 0 .24.002a.243.243 0 0 0-.09.007.107.107 0 0 0-.045.029.121.121 0 0 0-.025.048.256.256 0 0 0-.009.07v.223H.02C.013.379.009.383.005.39A.11.11 0 0 0 0 .43l.001.024a.06.06 0 0 0 .004.015.019.019 0 0 0 .006.008A.016.016 0 0 0 .02.48H.07v.097c0 .003.001.006.003.008a.02.02 0 0 0 .01.007.256.256 0 0 0 .098 0A.02.02 0 0 0 .19.584.014.014 0 0 0 .194.576V.479h.095C.292.479.295.478.297.476A.017.017 0 0 0 .303.468a.165.165 0 0 0 0-.078C.3.383.295.38.29.38H.194V.174c0-.023.004-.041.011-.053.008-.012.02-.018.04-.018a.096.096 0 0 1 .031.005 1.366 1.366 0 0 0 .018.006C.296.114.298.114.3.112.302.112.303.11.304.105A.141.141 0 0 0 .308.07z"/></symbol><symbol id="n"><path d="M.416.02A.014.014 0 0 0 .413.01a.023.023 0 0 0-.01-.005.243.243 0 0 0-.097 0 .023.023 0 0 0-.01.006.014.014 0 0 0-.003.009v.248a.2.2 0 0 1-.004.05.092.092 0 0 1-.014.03.057.057 0 0 1-.023.02.067.067 0 0 1-.032.008.081.081 0 0 1-.047-.017.256.256 0 0 1-.05-.05V.02A.014.014 0 0 0 .12.012.023.023 0 0 0 .11.005a.248.248 0 0 0-.097 0 .023.023 0 0 0-.01.006A.014.014 0 0 0 0 .02v.435c0 .003 0 .006.002.008a.017.017 0 0 0 .01.007l.015.003a.184.184 0 0 0 .052 0A.051.051 0 0 0 .094.47.017.017 0 0 0 .103.463.014.014 0 0 0 .105.455v-.05a.278.278 0 0 0 .073.058c.025.013.051.02.078.02A.17.17 0 0 0 .331.468a.128.128 0 0 0 .05-.04A.157.157 0 0 0 .407.37.343.343 0 0 0 .416.289v-.27z"/></symbol><symbol id="o"><path d="M0 0z"/></symbol><symbol id="p"><path d="M.467.106A.194.194 0 0 0 .464.07.042.042 0 0 0 .453.05a.244.244 0 0 0-.11-.044.325.325 0 0 0-.179.015.233.233 0 0 0-.088.059.27.27 0 0 0-.056.1.446.446 0 0 0-.02.138.44.44 0 0 0 .021.143.298.298 0 0 0 .06.105c.026.028.057.05.093.064A.314.314 0 0 0 .426.62.098.098 0 0 0 .458.593.04.04 0 0 0 .462.582a.225.225 0 0 0-.001-.08.023.023 0 0 0-.006-.01A.012.012 0 0 0 .447.49C.442.49.437.492.43.498a.243.243 0 0 1-.072.038A.174.174 0 0 1 .23.529a.143.143 0 0 1-.05-.044.206.206 0 0 1-.032-.069.357.357 0 0 1-.01-.091c0-.037.003-.07.01-.097A.192.192 0 0 1 .184.161a.137.137 0 0 1 .05-.04.198.198 0 0 1 .17.013.314.314 0 0 1 .03.018C.44.158.446.16.45.16.454.16.457.16.458.158.46.157.462.154.463.15A.31.31 0 0 0 .467.106z"/></symbol><symbol id="q"><path d="M.438.028c0-.004 0-.007-.002-.01A.019.019 0 0 0 .427.014.057.057 0 0 0 .411.009a.253.253 0 0 0-.066.004.023.023 0 0 0-.009.006.017.017 0 0 0-.002.009v.048A.278.278 0 0 0 .264.02.167.167 0 0 0 .181 0a.173.173 0 0 0-.085.019.166.166 0 0 0-.056.052.229.229 0 0 0-.031.076.424.424 0 0 0 .002.197.24.24 0 0 0 .037.08.161.161 0 0 0 .06.05A.183.183 0 0 0 .19.49.144.144 0 0 0 .257.476.23.23 0 0 0 .316.433v.235c0 .004 0 .007.002.01a.02.02 0 0 0 .01.006.079.079 0 0 0 .02.004.248.248 0 0 0 .077-.004.02.02 0 0 0 .01-.007.014.014 0 0 0 .003-.009v-.64m-.122.29a.266.266 0 0 1-.05.052.084.084 0 0 1-.051.017.07.07 0 0 1-.042-.012.088.088 0 0 1-.027-.032A.183.183 0 0 1 .13.298a.317.317 0 0 1 0-.104.176.176 0 0 1 .014-.046A.09.09 0 0 1 .17.116.069.069 0 0 1 .212.104c.009 0 .017.001.025.003A.095.095 0 0 1 .26.12.164.164 0 0 1 .287.14c.009.01.019.02.029.033V.32z"/></symbol><symbol id="r"><path d="M.44.6A.084.084 0 0 0 .437.565C.432.558.428.555.422.555h-.05A.067.067 0 0 0 .385.526a.097.097 0 0 0 .005-.03.172.172 0 0 0-.013-.068.136.136 0 0 0-.036-.05.163.163 0 0 0-.057-.03A.251.251 0 0 0 .17.342a.106.106 0 0 0-.029.012.078.078 0 0 1-.01-.015.043.043 0 0 1-.005-.02C.126.31.13.303.138.297a.066.066 0 0 1 .035-.01L.28.283a.247.247 0 0 0 .066-.01.134.134 0 0 0 .049-.026.104.104 0 0 0 .03-.039.134.134 0 0 0-.046-.163.22.22 0 0 0-.07-.033A.445.445 0 0 0 .112.01a.212.212 0 0 0-.065.024.1.1 0 0 0-.037.038A.1.1 0 0 0 0 .118c0 .01.001.021.004.03l.012.03a.213.213 0 0 0 .047.049.084.084 0 0 0-.033.03.084.084 0 0 0-.011.042c0 .019.004.036.013.052s.02.03.034.043a.13.13 0 0 0-.037.1c0 .026.004.049.013.069a.16.16 0 0 0 .095.083.227.227 0 0 0 .073.01.3.3 0 0 0 .074-.009h.138c.006 0 .01-.004.014-.01A.087.087 0 0 0 .44.6M.283.497a.074.074 0 0 1-.02.055.075.075 0 0 1-.055.02.075.075 0 0 1-.031-.007A.062.062 0 0 1 .14.524.094.094 0 0 1 .136.495c0-.022.007-.04.02-.053A.074.074 0 0 1 .21.423c.012 0 .023.002.032.006a.065.065 0 0 1 .036.04c.004.009.005.018.005.028M.312.15a.038.038 0 0 1-.018.034.092.092 0 0 1-.048.013L.16.198A.13.13 0 0 1 .126.164.052.052 0 0 1 .12.15.077.077 0 0 1 .12.134c0-.016.008-.029.024-.037a.156.156 0 0 1 .07-.013C.23.084.247.086.26.09a.087.087 0 0 1 .03.014.053.053 0 0 1 .017.021.06.06 0 0 1 .005.024z"/></symbol><symbol id="s"><path d="M.469.02A.02.02 0 0 0 .467.01L.457.004a.592.592 0 0 0-.112 0 .023.023 0 0 0-.01.007.043.043 0 0 0-.004.01L.274.163a.595.595 0 0 1-.02.042.126.126 0 0 1-.022.03.076.076 0 0 1-.027.02.095.095 0 0 1-.037.006h-.04v-.24A.013.013 0 0 0 .125.01a.02.02 0 0 0-.01-.006.271.271 0 0 0-.102 0 .02.02 0 0 0-.01.007A.014.014 0 0 0 0 .02v.573C0 .61.004.62.01.625a.04.04 0 0 0 .028.01h.164A.702.702 0 0 0 .272.63.263.263 0 0 0 .34.613.159.159 0 0 0 .392.578a.139.139 0 0 0 .033-.05A.182.182 0 0 0 .436.46.193.193 0 0 0 .428.403.145.145 0 0 0 .366.321.209.209 0 0 0 .313.297a.138.138 0 0 0 .05-.04.387.387 0 0 0 .04-.072L.457.06A.31.31 0 0 0 .469.02M.303.448C.303.47.3.487.29.501a.077.077 0 0 1-.046.03.305.305 0 0 1-.057.005H.128V.358h.066c.018 0 .034.003.048.007a.1.1 0 0 1 .034.018C.285.39.292.4.296.412a.097.097 0 0 1 .007.036z"/></symbol><symbol id="t"><path d="M.398.026a.013.013 0 0 0-.005-.01A.032.032 0 0 0 .377.01a.178.178 0 0 0-.03-.002.19.19 0 0 0-.033.002A.027.027 0 0 0 .3.016a.015.015 0 0 0-.004.01v.035A.197.197 0 0 0 .235.016.21.21 0 0 0 .095.01a.124.124 0 0 0-.083.07A.15.15 0 0 0 0 .143a.121.121 0 0 0 .06.112.22.22 0 0 0 .073.027C.163.287.196.29.235.29h.042v.026a.129.129 0 0 1-.004.036.055.055 0 0 1-.04.041A.205.205 0 0 1 .14.391a.32.32 0 0 1-.073-.03.044.044 0 0 0-.02-.007.016.016 0 0 0-.01.003.029.029 0 0 0-.007.01.132.132 0 0 0-.003.06.035.035 0 0 0 .01.016A.262.262 0 0 0 .1.475.35.35 0 0 0 .293.48a.144.144 0 0 0 .06-.03.118.118 0 0 0 .034-.054.25.25 0 0 0 .01-.078V.026m-.12.187H.23A.252.252 0 0 1 .18.208.097.097 0 0 1 .146.195a.056.056 0 0 1-.02-.021A.065.065 0 0 1 .12.146C.12.127.126.113.137.103A.07.07 0 0 1 .186.087C.203.087.219.09.233.1.248.11.263.122.277.14v.074z"/></symbol><symbol id="u"><path d="M.372.025A.044.044 0 0 0 .366.012.027.027 0 0 0 .353.004a.64.64 0 0 0-.137 0 .043.043 0 0 0-.01.005A.025.025 0 0 0 .2.016a.097.097 0 0 0-.004.01l-.188.56a.17.17 0 0 0-.007.029C0 .622 0 .627.006.63c.004.003.01.006.02.006A.439.439 0 0 0 .123.633C.127.632.13.63.132.626A.062.062 0 0 0 .137.614L.29.126l.151.485c.001.006.003.01.005.014a.02.02 0 0 0 .01.008.517.517 0 0 0 .091.003C.556.636.562.633.565.63.568.625.57.62.568.613A.16.16 0 0 0 .561.586L.372.026z"/></symbol><symbol id="v"><path d="M.333.15A.144.144 0 0 0 .318.086.128.128 0 0 0 .28.038.174.174 0 0 0 .22.01.276.276 0 0 0 .097.004a.287.287 0 0 0-.069.02.078.078 0 0 0-.017.011.036.036 0 0 0-.008.016A.202.202 0 0 0 0 .106c0 .006.002.01.003.014s.003.006.005.007a.013.013 0 0 0 .007.002.494.494 0 0 1 .078-.033.164.164 0 0 1 .077-.003.071.071 0 0 1 .022.01.04.04 0 0 1 .015.016.05.05 0 0 1 .005.022c0 .01-.003.018-.01.025A.074.074 0 0 1 .18.185a.255.255 0 0 1-.034.014 1.036 1.036 0 0 0-.077.034.126.126 0 0 0-.058.064.142.142 0 0 0-.009.053c0 .02.005.04.013.057.008.018.02.033.035.045a.167.167 0 0 0 .055.029.251.251 0 0 0 .114.007.289.289 0 0 0 .062-.017.064.064 0 0 0 .015-.009.02.02 0 0 0 .007-.007.028.028 0 0 0 .003-.009L.307.434.308.415A.19.19 0 0 0 .305.38.012.012 0 0 0 .3.374.015.015 0 0 0 .293.372.034.034 0 0 0 .28.377a.2.2 0 0 1-.056.022.146.146 0 0 1-.07.002.055.055 0 0 1-.02-.01.042.042 0 0 1-.016-.033c0-.01.003-.019.01-.025A.085.085 0 0 1 .151.314.284.284 0 0 1 .186.3.643.643 0 0 0 .264.266.146.146 0 0 0 .3.24.121.121 0 0 0 .333.15z"/></symbol><use xlink:href="#k" transform="matrix(7.8 0 0 -7.8 126.177 202.843)"/><use xlink:href="#e" transform="matrix(7.8 0 0 -7.8 130.308 202.843)"/><use xlink:href="#l" transform="matrix(7.8 0 0 -7.8 132.872 202.908)"/><use xlink:href="#m" transform="matrix(7.8 0 0 -7.8 136.882 202.896)"/><use xlink:href="#d" transform="matrix(7.8 0 0 -7.8 139.821 202.908)"/><use xlink:href="#c" transform="matrix(7.8 0 0 -7.8 143.902 202.843)"/><use xlink:href="#n" transform="matrix(7.8 0 0 -7.8 145.893 202.843)"/><use xlink:href="#o" transform="matrix(7.8 0 0 -7.8 149.602 202.82)"/><use xlink:href="#p" transform="matrix(7.8 0 0 -7.8 151.704 202.9)"/><use xlink:href="#l" transform="matrix(7.8 0 0 -7.8 155.757 202.908)"/><use xlink:href="#q" transform="matrix(7.8 0 0 -7.8 159.965 202.908)"/><use xlink:href="#c" transform="matrix(7.8 0 0 -7.8 164.275 202.843)"/><use xlink:href="#n" transform="matrix(7.8 0 0 -7.8 166.266 202.843)"/><use xlink:href="#r" transform="matrix(7.8 0 0 -7.8 170.101 204.21)"/><use xlink:href="#o" transform="matrix(7.8 0 0 -7.8 173.696 202.82)"/><use xlink:href="#s" transform="matrix(7.8 0 0 -7.8 176.05 202.843)"/><use xlink:href="#t" transform="matrix(7.8 0 0 -7.8 180.214 202.908)"/><use xlink:href="#e" transform="matrix(7.8 0 0 -7.8 184.277 202.843)"/><use xlink:href="#d" transform="matrix(7.8 0 0 -7.8 186.848 202.908)"/><use xlink:href="#o" transform="matrix(7.8 0 0 -7.8 190.49 202.82)"/><use xlink:href="#u" transform="matrix(7.8 0 0 -7.8 192.385 202.843)"/><use xlink:href="#t" transform="matrix(7.8 0 0 -7.8 197.132 202.908)"/><use xlink:href="#e" transform="matrix(7.8 0 0 -7.8 201.195 202.843)"/><use xlink:href="#c" transform="matrix(7.8 0 0 -7.8 203.892 202.843)"/><use xlink:href="#t" transform="matrix(7.8 0 0 -7.8 205.673 202.908)"/><use xlink:href="#n" transform="matrix(7.8 0 0 -7.8 209.705 202.843)"/><use xlink:href="#m" transform="matrix(7.8 0 0 -7.8 213.501 202.896)"/><use xlink:href="#v" transform="matrix(7.8 0 0 -7.8 216.453 202.908)"/></g></g><g data-name="P"><clipPath id="w"><path transform="matrix(1 0 0 -1 0 612)" d="M51.36 406.66h668.52v10.92H51.36z" fill-rule="evenodd"/></clipPath><g clip-path="url(#w)"><symbol id="x"><path d="M.422.196A.174.174 0 0 0 .354.05.231.231 0 0 0 .277.014.36.36 0 0 0 .118.005.352.352 0 0 0 .032.03a.105.105 0 0 0-.018.012.03.03 0 0 0-.007.008.146.146 0 0 0-.004.012.154.154 0 0 0-.003.04.09.09 0 0 0 .004.033C.007.14.01.144.016.144a.43.43 0 0 1 .09-.035.23.23 0 0 1 .104 0c.014.004.026.01.035.017a.07.07 0 0 1 .022.028.09.09 0 0 1 .007.037.087.087 0 0 1-.009.04.077.077 0 0 1-.025.03.12.12 0 0 1-.043.019.233.233 0 0 1-.06.007H.083L.072.288a.016.016 0 0 0-.008.007A.046.046 0 0 0 .06.31a.259.259 0 0 0 0 .048.05.05 0 0 0 .004.014.017.017 0 0 0 .007.007.025.025 0 0 0 .01.002h.055c.02 0 .036.002.05.006.015.005.027.011.037.02a.08.08 0 0 1 .023.029.094.094 0 0 1 .003.068.065.065 0 0 1-.017.025.067.067 0 0 1-.026.017.145.145 0 0 1-.087-.001A.276.276 0 0 1 .048.51C.04.506.034.503.03.503c-.003 0-.005 0-.007.002a.014.014 0 0 0-.005.007.056.056 0 0 0-.003.014.237.237 0 0 0 .002.057.05.05 0 0 0 .003.01A.04.04 0 0 0 .027.6l.02.014a.322.322 0 0 0 .156.04C.235.654.262.65.286.643a.162.162 0 0 0 .06-.032.124.124 0 0 0 .036-.05.19.19 0 0 0 .005-.12A.129.129 0 0 0 .33.364.158.158 0 0 0 .28.345V.343A.179.179 0 0 0 .34.326.146.146 0 0 0 .413.249a.14.14 0 0 0 .01-.053z"/></symbol><use xlink:href="#b" transform="matrix(9.24 0 0 -9.24 688.234 202.847)" fill="#c00000"/><use xlink:href="#c" transform="matrix(9.24 0 0 -9.24 693.236 202.847)" fill="#c00000"/><use xlink:href="#d" transform="matrix(9.24 0 0 -9.24 695.36 202.924)" fill="#c00000"/><use xlink:href="#e" transform="matrix(9.24 0 0 -9.24 700.243 202.847)" fill="#c00000"/><use xlink:href="#f" transform="matrix(9.24 0 0 -9.24 703.622 202.82)" fill="#c00000"/><use xlink:href="#g" transform="matrix(9.24 0 0 -9.24 708.203 202.879)" fill="#c00000"/><use xlink:href="#x" transform="matrix(9.24 0 0 -9.24 710.518 202.924)" fill="#c00000"/></g></g><g data-name="P"><clipPath id="y"><path transform="matrix(1 0 0 -1 0 612)" d="M51.36 57h668.52v500.04H51.36z" fill-rule="evenodd"/></clipPath><g clip-path="url(#y)"><symbol id="z"><path d="M.123.02A.014.014 0 0 0 .12.01.023.023 0 0 0 .11.006a.248.248 0 0 0-.097 0 .023.023 0 0 0-.01.006A.014.014 0 0 0 0 .02v.642C0 .665.001.668.003.67a.02.02 0 0 0 .01.007.079.079 0 0 0 .019.004A.248.248 0 0 0 .11.677.02.02 0 0 0 .12.67.014.014 0 0 0 .123.662V.02z"/></symbol><symbol id="A"><path d="M.693.02A.014.014 0 0 0 .69.01.023.023 0 0 0 .68.006a.248.248 0 0 0-.098 0 .023.023 0 0 0-.01.006A.016.016 0 0 0 .57.02v.258a.17.17 0 0 1-.004.04.085.085 0 0 1-.013.03.06.06 0 0 1-.052.027A.073.073 0 0 1 .457.36a.297.297 0 0 1-.05-.05V.02A.014.014 0 0 0 .406.012a.023.023 0 0 0-.01-.006.243.243 0 0 0-.097 0 .023.023 0 0 0-.01.006.014.014 0 0 0-.003.009v.258a.17.17 0 0 1-.004.04.09.09 0 0 1-.012.03.055.055 0 0 1-.022.02.062.062 0 0 1-.03.008A.074.074 0 0 1 .17.359a.284.284 0 0 1-.048-.05V.02A.014.014 0 0 0 .12.012.023.023 0 0 0 .11.005a.248.248 0 0 0-.097 0 .023.023 0 0 0-.01.006A.014.014 0 0 0 0 .02v.435c0 .003 0 .006.002.008a.017.017 0 0 0 .01.007l.015.003a.184.184 0 0 0 .052 0A.051.051 0 0 0 .094.47.017.017 0 0 0 .103.463.014.014 0 0 0 .105.455v-.05a.29.29 0 0 0 .072.058c.024.013.049.02.075.02A.184.184 0 0 0 .3.477.126.126 0 0 0 .368.436a.146.146 0 0 0 .02-.033.385.385 0 0 0 .038.036A.226.226 0 0 0 .5.478a.165.165 0 0 0 .11-.01.125.125 0 0 0 .049-.04A.156.156 0 0 0 .685.37.315.315 0 0 0 .693.298V.02z"/></symbol><symbol id="B"><path d="M.356.097A.2.2 0 0 0 .35.05.035.035 0 0 0 .343.042a.126.126 0 0 0-.02-.014A.213.213 0 0 0 .25.004a.24.24 0 0 0-.133.012.169.169 0 0 0-.065.046.208.208 0 0 0-.04.074.35.35 0 0 0-.013.1C0 .28.005.319.016.35a.219.219 0 0 0 .046.079c.02.02.043.036.07.046a.247.247 0 0 0 .16.003A.176.176 0 0 0 .34.452a.039.039 0 0 0 .008-.01A.022.022 0 0 0 .35.433.18.18 0 0 0 .35.358C.346.35.342.347.336.347A.03.03 0 0 0 .32.354a.484.484 0 0 1-.022.015.164.164 0 0 1-.03.015.116.116 0 0 1-.042.007A.083.083 0 0 1 .15.354.19.19 0 0 1 .126.246C.126.222.128.2.132.184A.135.135 0 0 1 .151.139.084.084 0 0 1 .182.11.104.104 0 0 1 .226.103C.243.103.257.105.27.11c.012.005.023.01.032.017l.023.017C.33.149.336.15.34.15c.003 0 .006 0 .008-.002S.35.144.352.139A.288.288 0 0 0 .356.097z"/></symbol><symbol id="C"><path d="M.54.544a.175.175 0 0 0-.005-.04A.016.016 0 0 0 .53.494.011.011 0 0 0 .522.493C.518.493.512.496.502.5A.305.305 0 0 1 .408.54a.287.287 0 0 1-.075.008A.206.206 0 0 1 .25.532.176.176 0 0 1 .187.487a.197.197 0 0 1-.041-.07.296.296 0 0 1 0-.186.197.197 0 0 1 .04-.068A.166.166 0 0 1 .25.121a.222.222 0 0 1 .123-.01.156.156 0 0 1 .039.015v.147H.29c-.006 0-.01.004-.014.01a.103.103 0 0 0-.005.038l.001.023A.058.058 0 0 0 .277.36a.019.019 0 0 0 .006.008.012.012 0 0 0 .008.003h.213A.03.03 0 0 0 .518.367.026.026 0 0 0 .528.36.035.035 0 0 0 .537.346.054.054 0 0 0 .54.33V.078A.06.06 0 0 0 .533.052C.53.045.523.039.513.035A.414.414 0 0 0 .423.01.515.515 0 0 0 .187.02a.279.279 0 0 0-.102.063.276.276 0 0 0-.063.101A.388.388 0 0 0 0 .32c0 .052.008.098.023.139a.292.292 0 0 0 .17.171.438.438 0 0 0 .311-.014.098.098 0 0 0 .023-.015.04.04 0 0 0 .01-.02A.17.17 0 0 0 .54.544z"/></symbol><symbol id="D"><path d="M.347.054A.18.18 0 0 0 .342.012a.02.02 0 0 0-.006-.01A.012.012 0 0 0 .328 0h-.29c-.01 0-.02.003-.027.01C.004.015 0 .025 0 .04v.574C0 .618.001.62.003.623a.024.024 0 0 0 .01.006.28.28 0 0 0 .102 0 .02.02 0 0 0 .01-.006A.013.013 0 0 0 .13.614V.106h.199A.012.012 0 0 0 .336.103.017.017 0 0 0 .342.094a.169.169 0 0 0 .005-.04z"/></symbol><use xlink:href="#p" transform="matrix(7.8 0 0 -7.8 344.39 250.45)"/><use xlink:href="#z" transform="matrix(7.8 0 0 -7.8 348.65 250.393)"/><use xlink:href="#c" transform="matrix(7.8 0 0 -7.8 350.496 250.393)"/><use xlink:href="#n" transform="matrix(7.8 0 0 -7.8 352.487 250.393)"/><use xlink:href="#l" transform="matrix(7.8 0 0 -7.8 356.47 250.458)"/><use xlink:href="#A" transform="matrix(7.8 0 0 -7.8 360.872 250.393)"/><use xlink:href="#c" transform="matrix(7.8 0 0 -7.8 367.172 250.393)"/><use xlink:href="#B" transform="matrix(7.8 0 0 -7.8 368.958 250.454)"/><use xlink:href="#v" transform="matrix(7.8 0 0 -7.8 372.222 250.458)"/><use xlink:href="#o" transform="matrix(7.8 0 0 -7.8 375.056 250.37)"/><use xlink:href="#C" transform="matrix(7.8 0 0 -7.8 377.112 250.454)"/><use xlink:href="#d" transform="matrix(7.8 0 0 -7.8 382.038 250.458)"/><use xlink:href="#n" transform="matrix(7.8 0 0 -7.8 386.19 250.393)"/><use xlink:href="#d" transform="matrix(7.8 0 0 -7.8 390.181 250.458)"/><use xlink:href="#o" transform="matrix(7.8 0 0 -7.8 393.862 250.37)"/><use xlink:href="#D" transform="matrix(7.8 0 0 -7.8 396.193 250.37)"/><use xlink:href="#c" transform="matrix(7.8 0 0 -7.8 399.3 250.393)"/><use xlink:href="#v" transform="matrix(7.8 0 0 -7.8 401.09 250.458)"/><use xlink:href="#m" transform="matrix(7.8 0 0 -7.8 404.011 250.446)"/></g></g><g data-name="P"><clipPath id="E"><path transform="matrix(1 0 0 -1 0 612)" d="M51.36 347.23h668.52v10.92H51.36z" fill-rule="evenodd"/></clipPath><g clip-path="url(#E)"><symbol id="F"><path d="M.469.185A.105.105 0 0 0 .463.146C.46.138.456.134.45.134H.394V.02A.014.014 0 0 0 .39.01.023.023 0 0 0 .38.006a.253.253 0 0 0-.098 0 .023.023 0 0 0-.01.006A.016.016 0 0 0 .27.02v.114H.028L.016.135a.02.02 0 0 0-.01.008.06.06 0 0 0-.005.018.258.258 0 0 0 0 .057.139.139 0 0 0 .016.056l.195.347a.019.019 0 0 0 .009.007.17.17 0 0 0 .043.009.66.66 0 0 0 .109-.005.04.04 0 0 0 .016-.006.012.012 0 0 0 .005-.01v-.38H.45C.455.236.46.232.463.224a.096.096 0 0 0 .006-.04M.27.528H.269L.103.237H.27v.29z"/></symbol><use xlink:href="#b" transform="matrix(9.24 0 0 -9.24 688.234 262.277)" fill="#c00000"/><use xlink:href="#c" transform="matrix(9.24 0 0 -9.24 693.236 262.277)" fill="#c00000"/><use xlink:href="#d" transform="matrix(9.24 0 0 -9.24 695.36 262.354)" fill="#c00000"/><use xlink:href="#e" transform="matrix(9.24 0 0 -9.24 700.243 262.277)" fill="#c00000"/><use xlink:href="#f" transform="matrix(9.24 0 0 -9.24 703.622 262.25)" fill="#c00000"/><use xlink:href="#g" transform="matrix(9.24 0 0 -9.24 708.203 262.309)" fill="#c00000"/><use xlink:href="#F" transform="matrix(9.24 0 0 -9.24 710.297 262.277)" fill="#c00000"/></g></g><g data-name="P"><clipPath id="G"><path transform="matrix(1 0 0 -1 0 612)" d="M51.36 287.81h668.52v10.944H51.36z" fill-rule="evenodd"/></clipPath><g clip-path="url(#G)" fill="#00b050"><use xlink:href="#b" transform="matrix(9.24 0 0 -9.24 691.854 321.677)"/><use xlink:href="#c" transform="matrix(9.24 0 0 -9.24 696.856 321.677)"/><use xlink:href="#d" transform="matrix(9.24 0 0 -9.24 698.98 321.754)"/><use xlink:href="#e" transform="matrix(9.24 0 0 -9.24 703.863 321.677)"/><use xlink:href="#i" transform="matrix(9.24 0 0 -9.24 706.972 321.65)"/></g></g><g data-name="P"><clipPath id="H"><path transform="matrix(1 0 0 -1 0 612)" d="M51.36 57h668.52v500.04H51.36z" fill-rule="evenodd"/></clipPath><g clip-path="url(#H)"><symbol id="I"><path d="M.521.048a.049.049 0 0 0-.004-.02.04.04 0 0 0-.01-.015A.04.04 0 0 0 .49.004.067.067 0 0 0 .473.002H.418a.115.115 0 0 0-.03.003.063.063 0 0 0-.023.013.122.122 0 0 0-.02.024.495.495 0 0 0-.022.04L.166.377a1.55 1.55 0 0 0-.053.117H.112A2.538 2.538 0 0 0 .116.352V.02A.014.014 0 0 0 .113.012a.02.02 0 0 0-.01-.007.08.08 0 0 0-.017-.004.23.23 0 0 0-.075.004.02.02 0 0 0-.009.007A.016.016 0 0 0 0 .021v.568c0 .015.004.027.013.034a.05.05 0 0 0 .033.012h.07A.122.122 0 0 0 .145.63.06.06 0 0 0 .17.621a.078.078 0 0 0 .019-.02.244.244 0 0 0 .018-.032L.33.338a5.024 5.024 0 0 0 .079-.16 4.323 4.323 0 0 0-.003.141v.297l.003.009a.023.023 0 0 0 .01.006.23.23 0 0 0 .092 0A.02.02 0 0 0 .519.625.016.016 0 0 0 .52.615V.049z"/></symbol><symbol id="J"><path d="M.493.02A.013.013 0 0 0 .49.013.02.02 0 0 0 .48.005a.266.266 0 0 0-.102 0 .024.024 0 0 0-.01.007.014.014 0 0 0-.003.009v.255H.128V.02A.014.014 0 0 0 .125.01a.02.02 0 0 0-.01-.006.271.271 0 0 0-.102 0 .024.024 0 0 0-.01.007A.014.014 0 0 0 0 .02v.596l.003.009a.024.024 0 0 0 .01.006.28.28 0 0 0 .102 0 .02.02 0 0 0 .01-.006.014.014 0 0 0 .003-.009V.385h.237v.232c0 .003 0 .006.003.009a.024.024 0 0 0 .01.006.285.285 0 0 0 .102 0A.02.02 0 0 0 .49.626.013.013 0 0 0 .493.617V.021z"/></symbol><symbol id="K"><path d="M.438.418A.402.402 0 0 0 .426.313.233.233 0 0 0 .39.233a.161.161 0 0 0-.06-.05.182.182 0 0 0-.147-.002.35.35 0 0 0-.06.045V.021A.014.014 0 0 0 .12.012.02.02 0 0 0 .11.006.07.07 0 0 0 .09 0a.248.248 0 0 0-.078.005.02.02 0 0 0-.01.006A.014.014 0 0 0 0 .021v.608c0 .004 0 .006.002.009a.017.017 0 0 0 .009.006.184.184 0 0 0 .082 0A.017.017 0 0 0 .102.638.014.014 0 0 0 .104.629V.58a.434.434 0 0 0 .037.033.215.215 0 0 0 .077.04.187.187 0 0 0 .125-.014.15.15 0 0 0 .054-.051A.229.229 0 0 0 .43.51a.422.422 0 0 0 .01-.093M.31.409a.312.312 0 0 1-.005.053.149.149 0 0 1-.014.046.082.082 0 0 1-.026.032.065.065 0 0 1-.04.012.092.092 0 0 1-.049-.016.307.307 0 0 1-.053-.054L.122.34a.295.295 0 0 1 .05-.05A.08.08 0 0 1 .22.27c.016 0 .03.004.04.012C.274.29.283.3.29.314A.236.236 0 0 1 .31.41z"/></symbol><use xlink:href="#I" transform="matrix(7.8 0 0 -7.8 247.397 333.573)"/><use xlink:href="#l" transform="matrix(7.8 0 0 -7.8 252.274 333.638)"/><use xlink:href="#m" transform="matrix(7.8 0 0 -7.8 256.284 333.626)"/><use xlink:href="#o" transform="matrix(7.8 0 0 -7.8 258.973 333.55)"/><use xlink:href="#l" transform="matrix(7.8 0 0 -7.8 261.042 333.638)"/><use xlink:href="#n" transform="matrix(7.8 0 0 -7.8 265.444 333.573)"/><use xlink:href="#o" transform="matrix(7.8 0 0 -7.8 269.152 333.55)"/><use xlink:href="#J" transform="matrix(7.8 0 0 -7.8 271.499 333.573)"/><use xlink:href="#l" transform="matrix(7.8 0 0 -7.8 276.158 333.638)"/><use xlink:href="#m" transform="matrix(7.8 0 0 -7.8 280.168 333.626)"/><use xlink:href="#v" transform="matrix(7.8 0 0 -7.8 283.112 333.638)"/><use xlink:href="#K" transform="matrix(7.8 0 0 -7.8 286.426 334.933)"/><use xlink:href="#l" transform="matrix(7.8 0 0 -7.8 290.409 333.638)"/><use xlink:href="#m" transform="matrix(7.8 0 0 -7.8 294.418 333.626)"/><use xlink:href="#o" transform="matrix(7.8 0 0 -7.8 297.108 333.55)"/><use xlink:href="#p" transform="matrix(7.8 0 0 -7.8 299.202 333.63)"/><use xlink:href="#l" transform="matrix(7.8 0 0 -7.8 303.255 333.638)"/><use xlink:href="#q" transform="matrix(7.8 0 0 -7.8 307.463 333.638)"/><use xlink:href="#l" transform="matrix(7.8 0 0 -7.8 311.64 333.638)"/><use xlink:href="#n" transform="matrix(7.8 0 0 -7.8 316.042 333.573)"/></g></g><g data-name="P"><clipPath id="L"><path transform="matrix(1 0 0 -1 0 612)" d="M51.36 228.41h668.52v10.92H51.36z" fill-rule="evenodd"/></clipPath><g clip-path="url(#L)" fill="#ed7d31"><use xlink:href="#b" transform="matrix(9.24 0 0 -9.24 691.854 381.097)"/><use xlink:href="#c" transform="matrix(9.24 0 0 -9.24 696.856 381.097)"/><use xlink:href="#d" transform="matrix(9.24 0 0 -9.24 698.98 381.174)"/><use xlink:href="#e" transform="matrix(9.24 0 0 -9.24 703.863 381.097)"/><use xlink:href="#x" transform="matrix(9.24 0 0 -9.24 706.958 381.174)"/></g></g><g data-name="P"><clipPath id="M"><path transform="matrix(1 0 0 -1 0 612)" d="M51.36 168.98h668.52v10.92H51.36z" fill-rule="evenodd"/></clipPath><g clip-path="url(#M)" fill="#4472c4"><use xlink:href="#b" transform="matrix(9.24 0 0 -9.24 691.854 440.527)"/><use xlink:href="#c" transform="matrix(9.24 0 0 -9.24 696.856 440.527)"/><use xlink:href="#d" transform="matrix(9.24 0 0 -9.24 698.98 440.604)"/><use xlink:href="#e" transform="matrix(9.24 0 0 -9.24 703.863 440.527)"/><use xlink:href="#F" transform="matrix(9.24 0 0 -9.24 706.737 440.527)"/></g></g><g data-name="P"><clipPath id="N"><path transform="matrix(1 0 0 -1 0 612)" d="M51.36 109.58h668.52v10.92H51.36z" fill-rule="evenodd"/></clipPath><g clip-path="url(#N)"><symbol id="O"><path d="M.478.038A.037.037 0 0 0 .466.01.03.03 0 0 0 .455.003.043.043 0 0 0 .442.001H.415a.058.058 0 0 0-.04.012.118.118 0 0 0-.018.02.362.362 0 0 0-.018.031l-.2.36a2.954 2.954 0 0 0-.06.118H.078A4.974 4.974 0 0 0 .08.397V.016L.078.009A.014.014 0 0 0 .07.004.1.1 0 0 0 .04 0a.109.109 0 0 0-.032.004.014.014 0 0 0-.006.005A.014.014 0 0 0 0 .016v.583C0 .612.004.62.01.626a.038.038 0 0 0 .024.009h.04c.01 0 .017-.001.024-.003A.057.057 0 0 0 .13.608.212.212 0 0 0 .144.583L.298.306a4.18 4.18 0 0 0 .1-.189H.4l-.001.08v.424c0 .002 0 .004.002.006a.014.014 0 0 0 .006.005.039.039 0 0 0 .012.003.167.167 0 0 0 .039 0c.005 0 .01-.002.012-.003A.014.014 0 0 0 .476.627.011.011 0 0 0 .478.621V.038z"/></symbol><symbol id="P"><path d="M.476.243A.291.291 0 0 0 .46.14.203.203 0 0 0 .335.016.301.301 0 0 0 .233 0a.285.285 0 0 0-.095.015.203.203 0 0 0-.074.045.198.198 0 0 0-.047.074A.292.292 0 0 0 0 .236v.392c0 .003 0 .005.002.007A.012.012 0 0 0 .009.64a.115.115 0 0 0 .033.004A.117.117 0 0 0 .075.64.012.012 0 0 0 .082.635.012.012 0 0 0 .083.628V.247c0-.03.004-.055.011-.077A.149.149 0 0 1 .125.115.136.136 0 0 1 .174.083C.193.075.214.072.238.072c.025 0 .046.003.065.01C.323.09.34.1.352.116a.14.14 0 0 1 .03.053c.007.021.01.046.01.074v.386c0 .003.001.005.003.007A.012.012 0 0 0 .4.64a.12.12 0 0 0 .053.003L.467.64A.012.012 0 0 0 .474.635.01.01 0 0 0 .476.628V.243z"/></symbol><symbol id="Q"><path d="M.328.037A.12.12 0 0 0 .327.02.038.038 0 0 0 .323.009.016.016 0 0 0 .318.002.013.013 0 0 0 .31 0H.03A.036.036 0 0 0 .01.007C.003.013 0 .021 0 .034V.62c0 .003 0 .005.002.007A.012.012 0 0 0 .009.63a.117.117 0 0 0 .053.003C.068.633.072.632.075.63A.012.012 0 0 0 .082.626.012.012 0 0 0 .084.619V.073h.227C.313.073.316.072.318.07A.013.013 0 0 0 .323.064a.028.028 0 0 0 .004-.01.12.12 0 0 0 0-.017z"/></symbol><use xlink:href="#O" transform="matrix(9.24 0 0 -9.24 692.576 499.927)"/><use xlink:href="#P" transform="matrix(9.24 0 0 -9.24 698.554 499.986)"/><use xlink:href="#Q" transform="matrix(9.24 0 0 -9.24 704.44 499.9)"/><use xlink:href="#Q" transform="matrix(9.24 0 0 -9.24 708.284 499.9)"/></g></g><clipPath id="R"><path transform="matrix(1 0 0 -1 0 612)" d="M51.36 57h668.52v500.04H51.36z" fill-rule="evenodd"/></clipPath><g data-name="P" clip-path="url(#R)"><symbol id="S"><path d="M.418.456V.447L.415.44.415.435.265.018a.024.024 0 0 0-.006-.01A.02.02 0 0 0 .25.004a.253.253 0 0 0-.081 0 .023.023 0 0 0-.01.006.024.024 0 0 0-.005.009l-.15.417c0 .004-.002.007-.003.01A.28.28 0 0 1 0 .452v.004C0 .458 0 .46.002.462a.012.012 0 0 0 .006.005.313.313 0 0 0 .067 0A.014.014 0 0 0 .082.46.031.031 0 0 0 .086.454L.21.092.212.086l.002.006.122.362.004.007a.018.018 0 0 0 .007.005.19.19 0 0 0 .064 0C.414.467.416.465.417.463A.01.01 0 0 0 .418.456z"/></symbol><symbol id="T"><path d="M.437.327A.695.695 0 0 0 .425.194.3.3 0 0 0 .387.09a.187.187 0 0 0-.07-.067A.219.219 0 0 0 .213 0a.219.219 0 0 0-.1.021.167.167 0 0 0-.066.062.298.298 0 0 0-.036.102.837.837 0 0 0 .002.271C.02.496.032.531.05.56c.017.029.04.05.07.066A.214.214 0 0 0 .224.65c.04 0 .073-.007.1-.021A.162.162 0 0 0 .391.566.287.287 0 0 0 .426.465.792.792 0 0 0 .437.327M.351.32a.947.947 0 0 1-.014.151.198.198 0 0 1-.017.05.11.11 0 0 1-.025.034.086.086 0 0 1-.033.02.13.13 0 0 1-.042.006.109.109 0 0 1-.068-.02.133.133 0 0 1-.04-.054.288.288 0 0 1-.02-.08A.85.85 0 0 1 .092.21a.27.27 0 0 1 .023-.08.107.107 0 0 1 .04-.046.12.12 0 0 1 .06-.014.12.12 0 0 1 .049.009A.1.1 0 0 1 .3.103c.01.01.019.024.025.04a.413.413 0 0 1 .023.11.912.912 0 0 1 .003.068z"/></symbol><symbol id="U"><path d="M.368.033A.07.07 0 0 0 .366.018a.034.034 0 0 0-.004-.01A.017.017 0 0 0 .356 0 .014.014 0 0 0 .35 0H.02L.014.001a.025.025 0 0 0-.006.006.034.034 0 0 0-.004.01.07.07 0 0 0-.002.016c0 .006 0 .011.002.015a.047.047 0 0 0 .003.01.018.018 0 0 0 .006.007.012.012 0 0 0 .007.002h.132v.48L.03.476A.054.054 0 0 0 .015.47C.01.47.008.47.005.471a.02.02 0 0 0-.004.01.145.145 0 0 0 .002.043.023.023 0 0 0 .004.007.048.048 0 0 0 .007.006L.16.63a.017.017 0 0 0 .005.003l.007.002h.01A.182.182 0 0 0 .23.633C.23.632.233.63.234.628A.01.01 0 0 0 .236.623V.067H.35c.003 0 .005 0 .007-.002A.013.013 0 0 0 .363.059a.027.027 0 0 0 .003-.01.068.068 0 0 0 .002-.016z"/></symbol><symbol id="V"><path d="M.396.19A.197.197 0 0 0 .381.11a.168.168 0 0 0-.044-.06.198.198 0 0 0-.07-.038.31.31 0 0 0-.153-.008.385.385 0 0 0-.084.027.126.126 0 0 0-.018.011.033.033 0 0 0-.01.015.081.081 0 0 0-.002.03c0 .011.001.02.003.024.003.004.006.007.01.007C.016.119.022.116.03.11A.379.379 0 0 1 .11.077a.22.22 0 0 1 .118 0c.016.006.03.014.041.024.011.01.02.022.025.036A.122.122 0 0 1 .292.23.101.101 0 0 1 .26.268a.142.142 0 0 1-.05.024A.246.246 0 0 1 .144.3h-.06L.076.3A.021.021 0 0 0 .07.307a.044.044 0 0 0-.005.01.076.076 0 0 0 0 .032.028.028 0 0 0 .004.01.016.016 0 0 0 .007.005.015.015 0 0 0 .007.002H.14c.021 0 .04.003.057.009A.12.12 0 0 1 .24.398a.119.119 0 0 1 .03.123.085.085 0 0 1-.019.032.085.085 0 0 1-.032.02A.15.15 0 0 1 .12.572.319.319 0 0 1 .048.536C.04.53.035.527.031.527a.02.02 0 0 0-.006.001.013.013 0 0 0-.004.005.053.053 0 0 0-.003.01.256.256 0 0 0 0 .03l.002.01a.043.043 0 0 0 .003.008A.04.04 0 0 0 .03.6l.019.014a.277.277 0 0 0 .218.026.15.15 0 0 0 .055-.032.125.125 0 0 0 .033-.049A.192.192 0 0 0 .358.44.146.146 0 0 0 .337.394.148.148 0 0 0 .299.36.146.146 0 0 0 .248.341.175.175 0 0 0 .354.29a.138.138 0 0 0 .03-.045A.138.138 0 0 0 .397.19z"/></symbol><symbol id="W"><path d="M.396.036A.075.075 0 0 0 .39.01.015.015 0 0 0 .385.002.015.015 0 0 0 .377 0h-.35L.017.001a.026.026 0 0 0-.01.006.028.028 0 0 0-.005.012A.26.26 0 0 0 0 .054l.004.012A.074.074 0 0 0 .02.09l.122.13C.17.25.193.277.21.3c.017.024.03.046.04.065a.213.213 0 0 1 .022.098.113.113 0 0 1-.006.04.095.095 0 0 1-.098.064.163.163 0 0 1-.053-.008.294.294 0 0 1-.072-.037C.036.517.03.514.026.514.024.514.02.514.02.516a.017.017 0 0 0-.005.006.135.135 0 0 0-.001.051.05.05 0 0 0 .003.008.035.035 0 0 0 .008.008c.004.004.01.009.02.015L.08.62a.318.318 0 0 0 .103.02c.03 0 .057-.004.08-.013A.155.155 0 0 0 .321.593.143.143 0 0 0 .355.54.178.178 0 0 0 .367.477c0-.02-.002-.04-.006-.06A.244.244 0 0 0 .338.352a.488.488 0 0 0-.05-.078A1.161 1.161 0 0 0 .203.176L.102.07h.274C.38.071.382.071.384.07A.015.015 0 0 0 .39.062a.027.027 0 0 0 .004-.01.068.068 0 0 0 .002-.016z"/></symbol><symbol id="X"><path d="M.412.599A.122.122 0 0 0 .41.569.165.165 0 0 0 .401.544L.173.018a.03.03 0 0 0-.006-.01.028.028 0 0 0-.01-.006.2.2 0 0 0-.062-.002.035.035 0 0 0-.012.005C.08.008.079.01.079.014s.002.007.004.01l.239.537H.019c-.007 0-.011.003-.015.01A.068.068 0 0 0 0 .598l.001.016a.04.04 0 0 0 .004.011.016.016 0 0 0 .006.007.013.013 0 0 0 .008.003h.368c.004 0 .008 0 .011-.002A.012.012 0 0 0 .406.627a.032.032 0 0 0 .005-.01.086.086 0 0 0 .001-.018z"/></symbol><use xlink:href="#S" transform="matrix(7.8 0 0 -7.8 684.47 552.143)"/><use xlink:href="#T" transform="matrix(7.8 0 0 -7.8 688.093 552.192)"/><use xlink:href="#U" transform="matrix(7.8 0 0 -7.8 692.436 552.12)"/><use xlink:href="#T" transform="matrix(7.8 0 0 -7.8 696.002 552.192)"/><use xlink:href="#V" transform="matrix(7.8 0 0 -7.8 700.075 552.192)"/><use xlink:href="#W" transform="matrix(7.8 0 0 -7.8 704.071 552.12)"/><use xlink:href="#T" transform="matrix(7.8 0 0 -7.8 707.882 552.192)"/><use xlink:href="#U" transform="matrix(7.8 0 0 -7.8 712.225 552.12)"/><use xlink:href="#X" transform="matrix(7.8 0 0 -7.8 715.894 552.143)"/></g><clipPath id="Y"><path transform="matrix(1 0 0 -1 0 612)" d="M51.36 263.57h72.72v11.88H51.36z" fill-rule="evenodd"/></clipPath><g data-name="P" clip-path="url(#Y)"><symbol id="Z"><path d="M.413.2A.184.184 0 0 0 .344.05.222.222 0 0 0 .27.013.316.316 0 0 0 .118.005a.373.373 0 0 0-.086.03.106.106 0 0 0-.02.014.038.038 0 0 0-.01.018.275.275 0 0 0 .001.077.019.019 0 0 0 .007.008.014.014 0 0 0 .009.003c.004 0 .01-.002.019-.008A.429.429 0 0 1 .116.111.23.23 0 0 1 .221.11c.013.004.023.01.031.016a.066.066 0 0 1 .02.025.08.08 0 0 1 .007.034.058.058 0 0 1-.011.037.11.11 0 0 1-.031.027.273.273 0 0 1-.043.023 5.214 5.214 0 0 0-.049.022.478.478 0 0 0-.05.026.174.174 0 0 0-.073.085.177.177 0 0 0-.011.068.164.164 0 0 0 .062.137C.092.624.114.636.14.643A.297.297 0 0 0 .364.616.03.03 0 0 0 .374.6.37.37 0 0 0 .373.524a.017.017 0 0 0-.005-.01C.366.512.363.511.359.511a.04.04 0 0 0-.017.007.332.332 0 0 1-.068.03.169.169 0 0 1-.05.006A.113.113 0 0 1 .189.55.073.073 0 0 1 .162.535.057.057 0 0 1 .146.513.074.074 0 0 1 .141.486C.141.472.145.46.152.45A.12.12 0 0 1 .183.422.394.394 0 0 1 .227.4a1.566 1.566 0 0 0 .1-.049A.191.191 0 0 0 .37.315.162.162 0 0 0 .413.201z"/></symbol><use xlink:href="#Z" transform="matrix(7.8 0 0 -7.8 67.92 345.518)"/><use xlink:href="#l" transform="matrix(7.8 0 0 -7.8 71.667 345.518)"/><use xlink:href="#A" transform="matrix(7.8 0 0 -7.8 76.07 345.453)"/><use xlink:href="#t" transform="matrix(7.8 0 0 -7.8 82.201 345.518)"/><use xlink:href="#m" transform="matrix(7.8 0 0 -7.8 85.871 345.506)"/><use xlink:href="#c" transform="matrix(7.8 0 0 -7.8 88.953 345.453)"/><use xlink:href="#B" transform="matrix(7.8 0 0 -7.8 90.738 345.514)"/><use xlink:href="#o" transform="matrix(7.8 0 0 -7.8 93.724 345.43)"/><use xlink:href="#u" transform="matrix(7.8 0 0 -7.8 95.573 345.453)"/><use xlink:href="#t" transform="matrix(7.8 0 0 -7.8 100.336 345.518)"/><use xlink:href="#e" transform="matrix(7.8 0 0 -7.8 104.399 345.453)"/><use xlink:href="#c" transform="matrix(7.8 0 0 -7.8 107.095 345.453)"/><use xlink:href="#t" transform="matrix(7.8 0 0 -7.8 108.877 345.518)"/><use xlink:href="#n" transform="matrix(7.8 0 0 -7.8 112.909 345.453)"/><use xlink:href="#m" transform="matrix(7.8 0 0 -7.8 116.705 345.506)"/><use xlink:href="#v" transform="matrix(7.8 0 0 -7.8 119.656 345.518)"/></g><clipPath id="aa"><path transform="matrix(1 0 0 -1 0 612)" d="M148.1 120.98h525.55v11.88H148.1z" fill-rule="evenodd"/></clipPath><g data-name="P" clip-path="url(#aa)"><symbol id="ab"><path d="M.598.334c0-.052-.006-.099-.02-.14A.253.253 0 0 0 .425.023.355.355 0 0 0 .295 0a.395.395 0 0 0-.13.019.225.225 0 0 0-.146.16A.512.512 0 0 0 .02.46a.254.254 0 0 0 .153.17.353.353 0 0 0 .132.023c.048 0 .09-.006.127-.019A.22.22 0 0 0 .523.577a.251.251 0 0 0 .056-.1A.472.472 0 0 0 .6.334M.462.328a.479.479 0 0 1-.007.09.19.19 0 0 1-.027.07.123.123 0 0 1-.05.045A.17.17 0 0 1 .3.549.158.158 0 0 1 .22.53a.143.143 0 0 1-.05-.048.2.2 0 0 1-.028-.07.507.507 0 0 1 0-.177.2.2 0 0 1 .026-.07.123.123 0 0 1 .05-.045.18.18 0 0 1 .078-.015c.032 0 .058.006.08.018a.142.142 0 0 1 .05.047c.014.02.023.044.028.07a.428.428 0 0 1 .008.087z"/></symbol><symbol id="ac"><path d="M.416.02A.014.014 0 0 0 .413.01a.023.023 0 0 0-.01-.005.243.243 0 0 0-.097 0 .023.023 0 0 0-.01.006.014.014 0 0 0-.003.009v.248a.2.2 0 0 1-.004.05.092.092 0 0 1-.014.03.057.057 0 0 1-.023.02.067.067 0 0 1-.032.008.081.081 0 0 1-.047-.017.256.256 0 0 1-.05-.05V.02A.014.014 0 0 0 .12.012.023.023 0 0 0 .11.005a.248.248 0 0 0-.097 0 .023.023 0 0 0-.01.006A.014.014 0 0 0 0 .02v.642C0 .665.001.668.003.67a.02.02 0 0 0 .01.007.079.079 0 0 0 .019.004A.248.248 0 0 0 .11.677.02.02 0 0 0 .12.67.014.014 0 0 0 .123.662V.42c.021.02.043.036.065.046a.16.16 0 0 0 .068.016.17.17 0 0 0 .075-.015.128.128 0 0 0 .05-.04.162.162 0 0 0 .027-.06.348.348 0 0 0 .008-.081V.02z"/></symbol><use xlink:href="#ab" transform="matrix(7.8 0 0 -7.8 373.795 488.108)"/><use xlink:href="#m" transform="matrix(7.8 0 0 -7.8 378.85 488.096)"/><use xlink:href="#ac" transform="matrix(7.8 0 0 -7.8 382.004 488.043)"/><use xlink:href="#d" transform="matrix(7.8 0 0 -7.8 385.994 488.108)"/><use xlink:href="#e" transform="matrix(7.8 0 0 -7.8 390.155 488.043)"/><use xlink:href="#o" transform="matrix(7.8 0 0 -7.8 392.444 488.02)"/><use xlink:href="#Z" transform="matrix(7.8 0 0 -7.8 394.47 488.108)"/><use xlink:href="#l" transform="matrix(7.8 0 0 -7.8 398.217 488.108)"/><use xlink:href="#A" transform="matrix(7.8 0 0 -7.8 402.62 488.043)"/><use xlink:href="#t" transform="matrix(7.8 0 0 -7.8 408.751 488.108)"/><use xlink:href="#m" transform="matrix(7.8 0 0 -7.8 412.422 488.096)"/><use xlink:href="#c" transform="matrix(7.8 0 0 -7.8 415.503 488.043)"/><use xlink:href="#B" transform="matrix(7.8 0 0 -7.8 417.288 488.104)"/><use xlink:href="#o" transform="matrix(7.8 0 0 -7.8 420.274 488.02)"/><use xlink:href="#u" transform="matrix(7.8 0 0 -7.8 422.124 488.043)"/><use xlink:href="#t" transform="matrix(7.8 0 0 -7.8 426.886 488.108)"/><use xlink:href="#e" transform="matrix(7.8 0 0 -7.8 430.949 488.043)"/><use xlink:href="#c" transform="matrix(7.8 0 0 -7.8 433.646 488.043)"/><use xlink:href="#t" transform="matrix(7.8 0 0 -7.8 435.427 488.108)"/><use xlink:href="#n" transform="matrix(7.8 0 0 -7.8 439.459 488.043)"/><use xlink:href="#m" transform="matrix(7.8 0 0 -7.8 443.255 488.096)"/><use xlink:href="#v" transform="matrix(7.8 0 0 -7.8 446.207 488.108)"/></g><clipPath id="ad"><path transform="matrix(1 0 0 -1 0 612)" d="M245.3 536.88h428.35v10.32H245.3z" fill-rule="evenodd"/></clipPath><g data-name="P" clip-path="url(#ad)"><use xlink:href="#ab" transform="matrix(7.8 0 0 -7.8 430.215 72.808)"/><use xlink:href="#n" transform="matrix(7.8 0 0 -7.8 435.663 72.743)"/><use xlink:href="#o" transform="matrix(7.8 0 0 -7.8 439.371 72.72)"/><use xlink:href="#J" transform="matrix(7.8 0 0 -7.8 441.718 72.743)"/><use xlink:href="#l" transform="matrix(7.8 0 0 -7.8 446.377 72.808)"/><use xlink:href="#m" transform="matrix(7.8 0 0 -7.8 450.387 72.796)"/><use xlink:href="#v" transform="matrix(7.8 0 0 -7.8 453.33 72.808)"/><use xlink:href="#K" transform="matrix(7.8 0 0 -7.8 456.645 74.102)"/><use xlink:href="#l" transform="matrix(7.8 0 0 -7.8 460.628 72.808)"/><use xlink:href="#m" transform="matrix(7.8 0 0 -7.8 464.637 72.796)"/><use xlink:href="#o" transform="matrix(7.8 0 0 -7.8 467.327 72.72)"/><use xlink:href="#p" transform="matrix(7.8 0 0 -7.8 469.421 72.8)"/><use xlink:href="#l" transform="matrix(7.8 0 0 -7.8 473.474 72.808)"/><use xlink:href="#q" transform="matrix(7.8 0 0 -7.8 477.682 72.808)"/><use xlink:href="#l" transform="matrix(7.8 0 0 -7.8 481.86 72.808)"/><use xlink:href="#n" transform="matrix(7.8 0 0 -7.8 486.261 72.743)"/></g><clipPath id="ae"><path transform="matrix(1 0 0 -1 0 612)" d="M439.75 239.81h233.9v11.88h-233.9z" fill-rule="evenodd"/></clipPath><g data-name="P" clip-path="url(#ae)"><symbol id="af"><path d="M.122.021a.029.029 0 0 0-.007-.01.028.028 0 0 0-.01-.006A.193.193 0 0 0 .06 0C.046 0 .035 0 .027.002a.058.058 0 0 0-.02.006.014.014 0 0 0-.007.01C0 .022 0 .027.003.032l.292.82A.025.025 0 0 0 .312.87c.004.002.01.003.017.004A.211.211 0 0 0 .407.866a.014.014 0 0 0 .008-.01c0-.004 0-.009-.002-.014L.122.022z"/></symbol><symbol id="ag"><path d="M.525.325A.43.43 0 0 0 .502.176a.25.25 0 0 0-.065-.1.264.264 0 0 0-.104-.058A.51.51 0 0 0 .19 0h-.15C.026 0 .018.003.01.01.004.015 0 .025 0 .04v.551c0 .015.004.025.01.031a.04.04 0 0 0 .028.01H.2a.446.446 0 0 0 .143-.02.253.253 0 0 0 .16-.154.383.383 0 0 0 .022-.133M.392.321a.31.31 0 0 1-.01.083.173.173 0 0 1-.034.067.152.152 0 0 1-.06.044.236.236 0 0 1-.095.016H.128v-.43h.067C.23.102.26.107.284.116c.024.01.044.023.06.041a.176.176 0 0 1 .036.07C.388.251.392.283.392.32z"/></symbol><symbol id="ah"><path d="M.249.05A.101.101 0 0 0 .243.012C.24.004.233 0 .226 0H.023a.018.018 0 0 0-.018.011.103.103 0 0 0-.005.04c0 .018.002.03.005.038.004.008.01.012.018.012h.203C.23.1.233.1.236.098A.019.019 0 0 0 .243.09.046.046 0 0 0 .247.074.16.16 0 0 0 .25.051z"/></symbol><symbol id="ai"><path d="M.452.456V.45L.45.442A.13.13 0 0 0 .445.42L.315.025A.038.038 0 0 0 .307.013.027.027 0 0 0 .294.005a.734.734 0 0 0-.136 0 .03.03 0 0 0-.014.008.045.045 0 0 0-.006.013L.007.42A.397.397 0 0 0 0 .45v.006c0 .003 0 .006.002.008a.02.02 0 0 0 .01.006l.019.004A.39.39 0 0 0 .112.47C.117.468.121.466.122.463a.034.034 0 0 0 .005-.01l.1-.32.002-.011.003.012.098.32a.027.027 0 0 0 .004.01.02.02 0 0 0 .01.006l.019.003A.253.253 0 0 0 .44.47.017.017 0 0 0 .45.464.014.014 0 0 0 .451.456z"/></symbol><use xlink:href="#s" transform="matrix(7.8 0 0 -7.8 520.687 369.213)"/><use xlink:href="#t" transform="matrix(7.8 0 0 -7.8 524.85 369.278)"/><use xlink:href="#e" transform="matrix(7.8 0 0 -7.8 528.913 369.213)"/><use xlink:href="#d" transform="matrix(7.8 0 0 -7.8 531.485 369.278)"/><use xlink:href="#af" transform="matrix(7.8 0 0 -7.8 535.136 370.344)"/><use xlink:href="#ag" transform="matrix(7.8 0 0 -7.8 539.017 369.19)"/><use xlink:href="#d" transform="matrix(7.8 0 0 -7.8 543.692 369.278)"/><use xlink:href="#ah" transform="matrix(7.8 0 0 -7.8 547.589 367.67)"/><use xlink:href="#n" transform="matrix(7.8 0 0 -7.8 550.23 369.213)"/><use xlink:href="#l" transform="matrix(7.8 0 0 -7.8 554.23 369.278)"/><use xlink:href="#ai" transform="matrix(7.8 0 0 -7.8 558.236 369.213)"/><use xlink:href="#l" transform="matrix(7.8 0 0 -7.8 562.139 369.278)"/><use xlink:href="#o" transform="matrix(7.8 0 0 -7.8 566.06 369.19)"/><use xlink:href="#ai" transform="matrix(7.8 0 0 -7.8 567.939 369.213)"/><use xlink:href="#t" transform="matrix(7.8 0 0 -7.8 571.838 369.278)"/><use xlink:href="#e" transform="matrix(7.8 0 0 -7.8 575.9 369.213)"/><use xlink:href="#c" transform="matrix(7.8 0 0 -7.8 578.597 369.213)"/><use xlink:href="#t" transform="matrix(7.8 0 0 -7.8 580.379 369.278)"/><use xlink:href="#n" transform="matrix(7.8 0 0 -7.8 584.41 369.213)"/><use xlink:href="#m" transform="matrix(7.8 0 0 -7.8 588.207 369.266)"/><use xlink:href="#v" transform="matrix(7.8 0 0 -7.8 591.159 369.278)"/></g><clipPath id="aj"><path transform="matrix(1 0 0 -1 0 612)" d="M439.75 358.63h73.2v11.88h-73.2z" fill-rule="evenodd"/></clipPath><g data-name="P" clip-path="url(#aj)"><symbol id="ak"><path d="M.312.621.311.598A.053.053 0 0 0 .308.585.017.017 0 0 0 .304.579.01.01 0 0 0 .298.577c-.002 0-.005 0-.007.002a.1.1 0 0 1-.024.007.086.086 0 0 1-.02.002.056.056 0 0 1-.023-.005A.036.036 0 0 1 .208.57a.06.06 0 0 1-.01-.023.177.177 0 0 1-.002-.035v-.04h.08C.277.472.28.47.282.469A.017.017 0 0 0 .29.461a.165.165 0 0 0 0-.078C.286.376.282.373.275.373h-.08V.02A.014.014 0 0 0 .194.01a.023.023 0 0 0-.01-.005.256.256 0 0 0-.098 0 .023.023 0 0 0-.01.006.016.016 0 0 0-.002.009v.352H.02C.012.372.008.376.004.383a.246.246 0 0 0-.003.063.082.082 0 0 0 .003.015.019.019 0 0 0 .006.008.016.016 0 0 0 .009.003h.054v.036c0 .03.003.056.009.078a.14.14 0 0 0 .027.056.118.118 0 0 0 .048.033.192.192 0 0 0 .105.008A.138.138 0 0 0 .29.676.037.037 0 0 0 .302.67.02.02 0 0 0 .308.66.056.056 0 0 0 .31.645L.312.62z"/></symbol><symbol id="al"><path d="M.416.028.413.019A.019.019 0 0 0 .404.013.173.173 0 0 0 .363.008a.193.193 0 0 0-.042.005.019.019 0 0 0-.008.006.016.016 0 0 0-.002.009v.05A.275.275 0 0 0 .237.02.164.164 0 0 0 .16 0a.175.175 0 0 0-.076.015.133.133 0 0 0-.05.04.167.167 0 0 0-.026.058A.377.377 0 0 0 0 .197v.266C0 .467 0 .47.002.472a.02.02 0 0 0 .01.006.256.256 0 0 0 .097 0A.02.02 0 0 0 .12.472.012.012 0 0 0 .124.463V.217c0-.023.001-.04.004-.052A.097.097 0 0 1 .14.134a.068.068 0 0 1 .023-.02.074.074 0 0 1 .033-.007.08.08 0 0 1 .047.017.277.277 0 0 1 .05.05v.29c0 .003.001.005.003.008a.02.02 0 0 0 .01.006.248.248 0 0 0 .097 0 .02.02 0 0 0 .01-.006.012.012 0 0 0 .003-.009V.028z"/></symbol><use xlink:href="#D" transform="matrix(7.8 0 0 -7.8 451.687 250.37)"/><use xlink:href="#l" transform="matrix(7.8 0 0 -7.8 454.661 250.458)"/><use xlink:href="#v" transform="matrix(7.8 0 0 -7.8 458.861 250.458)"/><use xlink:href="#v" transform="matrix(7.8 0 0 -7.8 461.974 250.458)"/><use xlink:href="#o" transform="matrix(7.8 0 0 -7.8 464.808 250.37)"/><use xlink:href="#l" transform="matrix(7.8 0 0 -7.8 466.892 250.458)"/><use xlink:href="#ak" transform="matrix(7.8 0 0 -7.8 470.91 250.393)"/><use xlink:href="#o" transform="matrix(7.8 0 0 -7.8 473.333 250.37)"/><use xlink:href="#ak" transform="matrix(7.8 0 0 -7.8 475.222 250.393)"/><use xlink:href="#al" transform="matrix(7.8 0 0 -7.8 478.1 250.458)"/><use xlink:href="#n" transform="matrix(7.8 0 0 -7.8 482.307 250.393)"/><use xlink:href="#B" transform="matrix(7.8 0 0 -7.8 486.29 250.454)"/><use xlink:href="#m" transform="matrix(7.8 0 0 -7.8 489.364 250.446)"/><use xlink:href="#c" transform="matrix(7.8 0 0 -7.8 492.437 250.393)"/><use xlink:href="#l" transform="matrix(7.8 0 0 -7.8 494.223 250.458)"/><use xlink:href="#n" transform="matrix(7.8 0 0 -7.8 498.625 250.393)"/></g><clipPath id="am"><path transform="matrix(1 0 0 -1 0 612)" d="M536.95 299.23h136.7v11.88h-136.7z" fill-rule="evenodd"/></clipPath><g data-name="P" clip-path="url(#am)"><symbol id="an"><path d="M.354.582.353.557A.046.046 0 0 0 .349.542a.023.023 0 0 0-.006-.01A.012.012 0 0 0 .335.53H.13V.36h.194C.326.36.328.359.33.357A.019.019 0 0 0 .336.35.046.046 0 0 0 .34.333.17.17 0 0 0 .336.27a.023.023 0 0 0-.005-.01.013.013 0 0 0-.008-.002H.129V.02A.015.015 0 0 0 .126.012a.024.024 0 0 0-.01-.007.271.271 0 0 0-.102 0 .028.028 0 0 0-.011.007.015.015 0 0 0-.003.01v.572C0 .61.004.62.01.625a.04.04 0 0 0 .028.01h.297A.012.012 0 0 0 .343.632.019.019 0 0 0 .35.623.047.047 0 0 0 .353.607.18.18 0 0 0 .354.582z"/></symbol><use xlink:href="#ab" transform="matrix(7.8 0 0 -7.8 575.205 309.858)"/><use xlink:href="#m" transform="matrix(7.8 0 0 -7.8 580.26 309.846)"/><use xlink:href="#ac" transform="matrix(7.8 0 0 -7.8 583.414 309.793)"/><use xlink:href="#d" transform="matrix(7.8 0 0 -7.8 587.405 309.858)"/><use xlink:href="#e" transform="matrix(7.8 0 0 -7.8 591.565 309.793)"/><use xlink:href="#o" transform="matrix(7.8 0 0 -7.8 593.854 309.77)"/><use xlink:href="#D" transform="matrix(7.8 0 0 -7.8 596.177 309.77)"/><use xlink:href="#ab" transform="matrix(7.8 0 0 -7.8 599.182 309.858)"/><use xlink:href="#an" transform="matrix(7.8 0 0 -7.8 604.687 309.793)"/><use xlink:href="#o" transform="matrix(7.8 0 0 -7.8 607.746 309.77)"/><use xlink:href="#u" transform="matrix(7.8 0 0 -7.8 609.626 309.793)"/><use xlink:href="#t" transform="matrix(7.8 0 0 -7.8 614.373 309.858)"/><use xlink:href="#e" transform="matrix(7.8 0 0 -7.8 618.436 309.793)"/><use xlink:href="#c" transform="matrix(7.8 0 0 -7.8 621.133 309.793)"/><use xlink:href="#t" transform="matrix(7.8 0 0 -7.8 622.914 309.858)"/><use xlink:href="#n" transform="matrix(7.8 0 0 -7.8 626.946 309.793)"/><use xlink:href="#m" transform="matrix(7.8 0 0 -7.8 630.742 309.846)"/><use xlink:href="#v" transform="matrix(7.8 0 0 -7.8 633.694 309.858)"/></g><clipPath id="ao"><path transform="matrix(1 0 0 -1 0 612)" d="M342.53 180.38h331.13v11.904H342.53z" fill-rule="evenodd"/></clipPath><g data-name="P" clip-path="url(#ao)"><use xlink:href="#I" transform="matrix(7.8 0 0 -7.8 466.807 428.643)"/><use xlink:href="#l" transform="matrix(7.8 0 0 -7.8 471.684 428.708)"/><use xlink:href="#m" transform="matrix(7.8 0 0 -7.8 475.694 428.696)"/><use xlink:href="#o" transform="matrix(7.8 0 0 -7.8 478.383 428.62)"/><use xlink:href="#c" transform="matrix(7.8 0 0 -7.8 480.585 428.643)"/><use xlink:href="#n" transform="matrix(7.8 0 0 -7.8 482.576 428.643)"/><use xlink:href="#o" transform="matrix(7.8 0 0 -7.8 486.285 428.62)"/><use xlink:href="#p" transform="matrix(7.8 0 0 -7.8 488.387 428.7)"/><use xlink:href="#z" transform="matrix(7.8 0 0 -7.8 492.646 428.643)"/><use xlink:href="#c" transform="matrix(7.8 0 0 -7.8 494.492 428.643)"/><use xlink:href="#n" transform="matrix(7.8 0 0 -7.8 496.483 428.643)"/><use xlink:href="#l" transform="matrix(7.8 0 0 -7.8 500.466 428.708)"/><use xlink:href="#A" transform="matrix(7.8 0 0 -7.8 504.868 428.643)"/><use xlink:href="#c" transform="matrix(7.8 0 0 -7.8 511.169 428.643)"/><use xlink:href="#B" transform="matrix(7.8 0 0 -7.8 512.954 428.704)"/><use xlink:href="#v" transform="matrix(7.8 0 0 -7.8 516.218 428.708)"/><use xlink:href="#o" transform="matrix(7.8 0 0 -7.8 519.053 428.62)"/><use xlink:href="#C" transform="matrix(7.8 0 0 -7.8 521.109 428.704)"/><use xlink:href="#d" transform="matrix(7.8 0 0 -7.8 526.035 428.708)"/><use xlink:href="#n" transform="matrix(7.8 0 0 -7.8 530.187 428.643)"/><use xlink:href="#d" transform="matrix(7.8 0 0 -7.8 534.178 428.708)"/><use xlink:href="#o" transform="matrix(7.8 0 0 -7.8 537.858 428.62)"/><use xlink:href="#D" transform="matrix(7.8 0 0 -7.8 540.19 428.62)"/><use xlink:href="#c" transform="matrix(7.8 0 0 -7.8 543.297 428.643)"/><use xlink:href="#v" transform="matrix(7.8 0 0 -7.8 545.086 428.708)"/><use xlink:href="#m" transform="matrix(7.8 0 0 -7.8 548.008 428.696)"/></g><clipPath id="ap"><path transform="matrix(1 0 0 -1 0 612)" d="M476.35 489.34h197.3v11.904h-197.3z" fill-rule="evenodd"/></clipPath><g data-name="P" clip-path="url(#ap)"><use xlink:href="#s" transform="matrix(7.8 0 0 -7.8 527.407 119.683)"/><use xlink:href="#d" transform="matrix(7.8 0 0 -7.8 531.582 119.748)"/><use xlink:href="#K" transform="matrix(7.8 0 0 -7.8 535.735 121.043)"/><use xlink:href="#l" transform="matrix(7.8 0 0 -7.8 539.718 119.748)"/><use xlink:href="#e" transform="matrix(7.8 0 0 -7.8 544.12 119.683)"/><use xlink:href="#m" transform="matrix(7.8 0 0 -7.8 546.497 119.736)"/><use xlink:href="#d" transform="matrix(7.8 0 0 -7.8 549.452 119.748)"/><use xlink:href="#q" transform="matrix(7.8 0 0 -7.8 553.41 119.748)"/><use xlink:href="#o" transform="matrix(7.8 0 0 -7.8 557.313 119.66)"/><use xlink:href="#t" transform="matrix(7.8 0 0 -7.8 559.386 119.748)"/><use xlink:href="#v" transform="matrix(7.8 0 0 -7.8 563.246 119.748)"/><use xlink:href="#o" transform="matrix(7.8 0 0 -7.8 566.08 119.66)"/><use xlink:href="#t" transform="matrix(7.8 0 0 -7.8 568.137 119.748)"/><use xlink:href="#o" transform="matrix(7.8 0 0 -7.8 571.72 119.66)"/><use xlink:href="#v" transform="matrix(7.8 0 0 -7.8 573.777 119.748)"/><use xlink:href="#l" transform="matrix(7.8 0 0 -7.8 576.885 119.748)"/><use xlink:href="#A" transform="matrix(7.8 0 0 -7.8 581.287 119.683)"/><use xlink:href="#t" transform="matrix(7.8 0 0 -7.8 587.442 119.748)"/><use xlink:href="#m" transform="matrix(7.8 0 0 -7.8 591.113 119.736)"/><use xlink:href="#c" transform="matrix(7.8 0 0 -7.8 594.17 119.683)"/><use xlink:href="#B" transform="matrix(7.8 0 0 -7.8 595.956 119.744)"/><use xlink:href="#o" transform="matrix(7.8 0 0 -7.8 598.942 119.66)"/><use xlink:href="#B" transform="matrix(7.8 0 0 -7.8 600.98 119.744)"/><use xlink:href="#ac" transform="matrix(7.8 0 0 -7.8 604.445 119.683)"/><use xlink:href="#t" transform="matrix(7.8 0 0 -7.8 608.424 119.748)"/><use xlink:href="#n" transform="matrix(7.8 0 0 -7.8 612.487 119.683)"/><use xlink:href="#r" transform="matrix(7.8 0 0 -7.8 616.298 121.05)"/><use xlink:href="#d" transform="matrix(7.8 0 0 -7.8 620.198 119.748)"/></g><clipPath id="aq"><path transform="matrix(1 0 0 -1 0 612)" d="M476.35 477.46h197.3v11.88h-197.3z" fill-rule="evenodd"/></clipPath><g data-name="P" clip-path="url(#aq)"><symbol id="ar"><path d="M.414.242A.213.213 0 0 0 .41.204a.027.027 0 0 0-.004-.01A.014.014 0 0 0 .4.189L.025.003A.022.022 0 0 0 .014 0C.01 0 .008.002.005.006A.04.04 0 0 0 .001.02a.804.804 0 0 0 .002.075.02.02 0 0 0 .006.01.028.028 0 0 0 .01.005l.28.132L.023.37a.074.074 0 0 0-.012.007.022.022 0 0 0-.007.01.084.084 0 0 0-.004.02.86.86 0 0 0 .001.06.037.037 0 0 0 .004.015C.008.485.01.486.014.486A.035.035 0 0 0 .025.482L.4.295C.405.293.408.288.41.279A.136.136 0 0 0 .414.242z"/></symbol><symbol id="as"><path d="M.416.244A.082.082 0 0 0 .41.208C.406.2.4.197.394.197H.021C.015.197.01.2.005.207A.089.089 0 0 0 0 .245C0 .261.002.273.005.28.008.287.014.29.02.29h.373C.402.29.407.288.41.28A.086.086 0 0 0 .416.244m0-.197A.08.08 0 0 0 .41.01C.406.003.4 0 .394 0H.021C.015 0 .01.003.005.01A.087.087 0 0 0 0 .047c0 .016.002.028.005.036.003.007.009.01.016.01h.373C.402.094.407.09.41.084A.086.086 0 0 0 .416.047z"/></symbol><symbol id="at"><path d="M.414.216A.223.223 0 0 0 .396.125a.186.186 0 0 0-.05-.068.225.225 0 0 0-.078-.042A.328.328 0 0 0 .11.004a.4.4 0 0 0-.082.02.097.097 0 0 0-.018.01.028.028 0 0 0-.006.008.063.063 0 0 0-.003.01.426.426 0 0 0 .002.076.021.021 0 0 0 .005.008.01.01 0 0 0 .007.003.369.369 0 0 1 .081-.03.255.255 0 0 1 .108 0c.015.003.028.01.04.018.01.009.018.02.024.033a.114.114 0 0 1 .009.047.11.11 0 0 1-.007.041.075.075 0 0 1-.023.031.104.104 0 0 1-.041.02.42.42 0 0 1-.112.003A.344.344 0 0 0 .05.299C.041.299.035.3.031.306S.025.319.025.332v.274c0 .013.002.023.007.028.005.006.014.01.025.01h.299A.014.014 0 0 0 .364.64.02.02 0 0 0 .371.63a.18.18 0 0 0 0-.084C.367.538.362.533.356.533H.131V.398A.4.4 0 0 0 .201.4.308.308 0 0 0 .29.389.175.175 0 0 0 .359.354.146.146 0 0 0 .4.296a.207.207 0 0 0 .014-.08z"/></symbol><use xlink:href="#o" transform="matrix(7.8 0 0 -7.8 534.31 131.54)"/><use xlink:href="#c" transform="matrix(7.8 0 0 -7.8 536.512 131.563)"/><use xlink:href="#n" transform="matrix(7.8 0 0 -7.8 538.503 131.563)"/><use xlink:href="#o" transform="matrix(7.8 0 0 -7.8 542.211 131.54)"/><use xlink:href="#ar" transform="matrix(7.8 0 0 -7.8 544.402 131.234)"/><use xlink:href="#as" transform="matrix(7.8 0 0 -7.8 548.167 130.477)"/><use xlink:href="#o" transform="matrix(7.8 0 0 -7.8 551.688 131.54)"/><use xlink:href="#at" transform="matrix(7.8 0 0 -7.8 553.848 131.628)"/><use xlink:href="#o" transform="matrix(7.8 0 0 -7.8 557.437 131.54)"/><use xlink:href="#c" transform="matrix(7.8 0 0 -7.8 559.639 131.563)"/><use xlink:href="#n" transform="matrix(7.8 0 0 -7.8 561.63 131.563)"/><use xlink:href="#q" transform="matrix(7.8 0 0 -7.8 565.624 131.628)"/><use xlink:href="#c" transform="matrix(7.8 0 0 -7.8 569.95 131.563)"/><use xlink:href="#ai" transform="matrix(7.8 0 0 -7.8 571.545 131.563)"/><use xlink:href="#c" transform="matrix(7.8 0 0 -7.8 575.582 131.563)"/><use xlink:href="#q" transform="matrix(7.8 0 0 -7.8 577.379 131.628)"/><use xlink:href="#al" transform="matrix(7.8 0 0 -7.8 581.742 131.628)"/><use xlink:href="#t" transform="matrix(7.8 0 0 -7.8 585.756 131.628)"/><use xlink:href="#z" transform="matrix(7.8 0 0 -7.8 589.819 131.563)"/><use xlink:href="#o" transform="matrix(7.8 0 0 -7.8 591.258 131.54)"/><use xlink:href="#m" transform="matrix(7.8 0 0 -7.8 593.124 131.616)"/><use xlink:href="#al" transform="matrix(7.8 0 0 -7.8 596.25 131.628)"/><use xlink:href="#A" transform="matrix(7.8 0 0 -7.8 600.458 131.563)"/><use xlink:href="#l" transform="matrix(7.8 0 0 -7.8 606.617 131.628)"/><use xlink:href="#e" transform="matrix(7.8 0 0 -7.8 611.02 131.563)"/><use xlink:href="#v" transform="matrix(7.8 0 0 -7.8 613.587 131.628)"/></g><clipPath id="au"><path transform="matrix(1 0 0 -1 0 612)" d="M536.95 370.51h136.7v11.88h-136.7z" fill-rule="evenodd"/></clipPath><g data-name="P" clip-path="url(#au)"><symbol id="av"><path d="M.438.251A.396.396 0 0 0 .426.147a.24.24 0 0 0-.037-.08A.162.162 0 0 0 .251 0a.182.182 0 0 0-.078.018A.214.214 0 0 0 .14.04a.338.338 0 0 0-.034.034V.028a.015.015 0 0 0-.003-.01.019.019 0 0 0-.009-.005.057.057 0 0 0-.016-.004.269.269 0 0 0-.066.004.019.019 0 0 0-.009.006A.017.017 0 0 0 0 .028V.67l.003.009a.02.02 0 0 0 .01.006.079.079 0 0 0 .019.004A.248.248 0 0 0 .11.685.02.02 0 0 0 .12.68a.014.014 0 0 0 .003-.01V.43a.256.256 0 0 0 .066.048.145.145 0 0 0 .035.01.194.194 0 0 0 .119-.015A.154.154 0 0 0 .397.42.229.229 0 0 0 .43.343a.418.418 0 0 0 .01-.092M.31.243a.32.32 0 0 1-.004.053.149.149 0 0 1-.015.046.086.086 0 0 1-.026.032.066.066 0 0 1-.041.012.085.085 0 0 1-.049-.015.307.307 0 0 1-.053-.054V.172a.273.273 0 0 1 .05-.05.085.085 0 0 1 .05-.018c.015 0 .029.005.04.013.01.008.02.018.027.031a.144.144 0 0 1 .016.045.258.258 0 0 1 .005.05z"/></symbol><symbol id="aw"><path d="M.303.177.25.023C.248.015.24.009.227.005A.23.23 0 0 0 .169 0C.156 0 .146 0 .14.002A.042.042 0 0 0 .12.007C.117.01.115.013.114.017c0 .004 0 .009.003.014l.058.146a.037.037 0 0 0-.011.009.048.048 0 0 0-.008.013l-.15.4A.083.083 0 0 0 0 .626C0 .632.002.636.006.64c.004.003.01.006.02.007a.283.283 0 0 0 .07 0A.055.055 0 0 0 .115.646a.02.02 0 0 0 .01-.01.084.084 0 0 0 .007-.017L.234.327h.002L.33.624c.002.008.004.014.007.017a.032.032 0 0 0 .016.006L.39.649c.014 0 .026 0 .035-.002A.04.04 0 0 0 .445.64.018.018 0 0 0 .452.625.07.07 0 0 0 .448.604L.303.177z"/></symbol><symbol id="ax"><path d="M.461.022a.017.017 0 0 0-.003-.01C.457.01.453.007.448.005a.31.31 0 0 0-.1-.003.047.047 0 0 0-.02.008A.036.036 0 0 0 .32.02l-.19.3v-.3A.015.015 0 0 0 .124.012a.023.023 0 0 0-.01-.007.271.271 0 0 0-.102 0 .028.028 0 0 0-.01.007.015.015 0 0 0-.003.01v.595l.003.009a.024.024 0 0 0 .01.006.28.28 0 0 0 .102 0 .02.02 0 0 0 .01-.006.015.015 0 0 0 .003-.01V.349l.185.268a.033.033 0 0 0 .009.01.034.034 0 0 0 .012.007.406.406 0 0 0 .083.003.08.08 0 0 0 .021-.004C.443.63.447.628.448.625A.014.014 0 0 0 .453.617.038.038 0 0 0 .447.6.347.347 0 0 0 .431.572L.257.345l.19-.286A.178.178 0 0 0 .458.032a.03.03 0 0 0 .002-.01z"/></symbol><symbol id="ay"><path d="M.71.456V.443A.332.332 0 0 0 .703.42L.588.026A.044.044 0 0 0 .582.013.026.026 0 0 0 .569.005a.606.606 0 0 0-.125 0 .026.026 0 0 0-.011.008.038.038 0 0 0-.006.013L.354.291.353.295.352.291.284.026A.038.038 0 0 0 .278.013.023.023 0 0 0 .266.005a.63.63 0 0 0-.126 0 .026.026 0 0 0-.012.008.038.038 0 0 0-.006.013L.007.42A.212.212 0 0 0 0 .442L0 .456C0 .46 0 .462.002.464a.018.018 0 0 0 .01.006.39.39 0 0 0 .1 0C.117.47.12.466.122.463a.027.027 0 0 0 .004-.01l.086-.32.001-.005.001.006.081.32A.027.027 0 0 0 .3.464.022.022 0 0 0 .31.47c.004.002.01.003.017.004A.371.371 0 0 0 .404.47l.01-.006A.023.023 0 0 0 .416.456L.504.133.506.128v.006l.084.32c0 .004.002.007.004.01a.019.019 0 0 0 .01.006c.004.002.01.003.018.004A.371.371 0 0 0 .7.47C.704.47.707.467.71.464A.014.014 0 0 0 .71.456z"/></symbol><symbol id="az"><path d="M.736.02A.014.014 0 0 0 .733.013C.732.009.73.007.723.005a.248.248 0 0 0-.096 0 .02.02 0 0 0-.01.007.014.014 0 0 0-.002.009v.514H.614L.43.02a.026.026 0 0 0-.007-.01.033.033 0 0 0-.012-.007.348.348 0 0 0-.095.001.04.04 0 0 0-.012.007A.019.019 0 0 0 .3.02L.123.535H.122V.02A.014.014 0 0 0 .119.01L.109.006a.236.236 0 0 0-.097 0 .02.02 0 0 0-.01.007A.016.016 0 0 0 0 .02v.562C0 .6.004.613.013.622c.009.008.02.013.035.013h.084A.166.166 0 0 0 .171.63.07.07 0 0 0 .218.596C.223.587.228.576.232.562L.369.186H.37L.512.56a.214.214 0 0 0 .014.035c.005.01.01.017.017.023.007.006.015.01.024.012.01.002.02.004.032.004h.087A.065.065 0 0 0 .708.63a.036.036 0 0 0 .016-.01.038.038 0 0 0 .009-.016.062.062 0 0 0 .003-.022V.021z"/></symbol><use xlink:href="#D" transform="matrix(7.8 0 0 -7.8 559.477 238.49)"/><use xlink:href="#ab" transform="matrix(7.8 0 0 -7.8 562.482 238.578)"/><use xlink:href="#an" transform="matrix(7.8 0 0 -7.8 567.987 238.513)"/><use xlink:href="#o" transform="matrix(7.8 0 0 -7.8 571.046 238.49)"/><use xlink:href="#av" transform="matrix(7.8 0 0 -7.8 573.32 238.578)"/><use xlink:href="#aw" transform="matrix(7.8 0 0 -7.8 577.112 239.873)"/><use xlink:href="#o" transform="matrix(7.8 0 0 -7.8 580.749 238.49)"/><use xlink:href="#ax" transform="matrix(7.8 0 0 -7.8 583.08 238.513)"/><use xlink:href="#n" transform="matrix(7.8 0 0 -7.8 587.336 238.513)"/><use xlink:href="#l" transform="matrix(7.8 0 0 -7.8 591.32 238.578)"/><use xlink:href="#ay" transform="matrix(7.8 0 0 -7.8 595.375 238.513)"/><use xlink:href="#n" transform="matrix(7.8 0 0 -7.8 601.493 238.513)"/><use xlink:href="#o" transform="matrix(7.8 0 0 -7.8 605.202 238.49)"/><use xlink:href="#az" transform="matrix(7.8 0 0 -7.8 607.54 238.513)"/><use xlink:href="#d" transform="matrix(7.8 0 0 -7.8 614.103 238.578)"/><use xlink:href="#B" transform="matrix(7.8 0 0 -7.8 618.073 238.574)"/><use xlink:href="#ac" transform="matrix(7.8 0 0 -7.8 621.54 238.513)"/><use xlink:href="#t" transform="matrix(7.8 0 0 -7.8 625.518 238.578)"/><use xlink:href="#n" transform="matrix(7.8 0 0 -7.8 629.581 238.513)"/><use xlink:href="#c" transform="matrix(7.8 0 0 -7.8 633.697 238.513)"/><use xlink:href="#v" transform="matrix(7.8 0 0 -7.8 635.486 238.578)"/><use xlink:href="#A" transform="matrix(7.8 0 0 -7.8 638.8 238.513)"/><use xlink:href="#o" transform="matrix(7.8 0 0 -7.8 644.662 238.49)"/><use xlink:href="#c" transform="matrix(7.8 0 0 -7.8 646.88 238.513)"/><use xlink:href="#n" transform="matrix(7.8 0 0 -7.8 648.87 238.513)"/></g><clipPath id="aA"><path transform="matrix(1 0 0 -1 0 612)" d="M536.95 358.63h136.7v11.88h-136.7z" fill-rule="evenodd"/></clipPath><g data-name="P" clip-path="url(#aA)"><use xlink:href="#o" transform="matrix(7.8 0 0 -7.8 540.91 250.37)"/><use xlink:href="#n" transform="matrix(7.8 0 0 -7.8 543.184 250.393)"/><use xlink:href="#l" transform="matrix(7.8 0 0 -7.8 547.167 250.458)"/><use xlink:href="#n" transform="matrix(7.8 0 0 -7.8 551.569 250.393)"/><use xlink:href="#ah" transform="matrix(7.8 0 0 -7.8 555.518 248.85)"/><use xlink:href="#b" transform="matrix(7.8 0 0 -7.8 557.726 250.393)"/><use xlink:href="#Z" transform="matrix(7.8 0 0 -7.8 561.781 250.458)"/><use xlink:href="#C" transform="matrix(7.8 0 0 -7.8 565.508 250.454)"/><use xlink:href="#o" transform="matrix(7.8 0 0 -7.8 570.176 250.37)"/><use xlink:href="#ak" transform="matrix(7.8 0 0 -7.8 572.065 250.393)"/><use xlink:href="#l" transform="matrix(7.8 0 0 -7.8 574.755 250.458)"/><use xlink:href="#e" transform="matrix(7.8 0 0 -7.8 579.158 250.393)"/><use xlink:href="#o" transform="matrix(7.8 0 0 -7.8 581.447 250.37)"/><use xlink:href="#p" transform="matrix(7.8 0 0 -7.8 583.534 250.45)"/><use xlink:href="#t" transform="matrix(7.8 0 0 -7.8 587.583 250.458)"/><use xlink:href="#n" transform="matrix(7.8 0 0 -7.8 591.645 250.393)"/><use xlink:href="#B" transform="matrix(7.8 0 0 -7.8 595.628 250.454)"/><use xlink:href="#d" transform="matrix(7.8 0 0 -7.8 598.896 250.458)"/><use xlink:href="#e" transform="matrix(7.8 0 0 -7.8 603.018 250.393)"/><use xlink:href="#o" transform="matrix(7.8 0 0 -7.8 605.307 250.37)"/><use xlink:href="#C" transform="matrix(7.8 0 0 -7.8 607.379 250.454)"/><use xlink:href="#d" transform="matrix(7.8 0 0 -7.8 612.304 250.458)"/><use xlink:href="#n" transform="matrix(7.8 0 0 -7.8 616.457 250.393)"/><use xlink:href="#d" transform="matrix(7.8 0 0 -7.8 620.448 250.458)"/><use xlink:href="#o" transform="matrix(7.8 0 0 -7.8 624.128 250.37)"/><use xlink:href="#p" transform="matrix(7.8 0 0 -7.8 626.223 250.45)"/><use xlink:href="#d" transform="matrix(7.8 0 0 -7.8 630.284 250.458)"/><use xlink:href="#n" transform="matrix(7.8 0 0 -7.8 634.436 250.393)"/><use xlink:href="#v" transform="matrix(7.8 0 0 -7.8 638.423 250.458)"/><use xlink:href="#al" transform="matrix(7.8 0 0 -7.8 641.718 250.458)"/><use xlink:href="#v" transform="matrix(7.8 0 0 -7.8 645.747 250.458)"/><use xlink:href="#o" transform="matrix(7.8 0 0 -7.8 648.581 250.37)"/><use xlink:href="#C" transform="matrix(7.8 0 0 -7.8 650.661 250.454)"/><use xlink:href="#d" transform="matrix(7.8 0 0 -7.8 655.587 250.458)"/><use xlink:href="#n" transform="matrix(7.8 0 0 -7.8 659.74 250.393)"/><use xlink:href="#d" transform="matrix(7.8 0 0 -7.8 663.73 250.458)"/><use xlink:href="#v" transform="matrix(7.8 0 0 -7.8 667.688 250.458)"/></g><clipPath id="aB"><path transform="matrix(1 0 0 -1 0 612)" d="M536.95 418.06h136.7v11.88h-136.7z" fill-rule="evenodd"/></clipPath><g data-name="P" clip-path="url(#aB)"><use xlink:href="#b" transform="matrix(7.8 0 0 -7.8 561.986 190.963)"/><use xlink:href="#Z" transform="matrix(7.8 0 0 -7.8 566.041 191.028)"/><use xlink:href="#C" transform="matrix(7.8 0 0 -7.8 569.768 191.024)"/><use xlink:href="#o" transform="matrix(7.8 0 0 -7.8 574.42 190.94)"/><use xlink:href="#c" transform="matrix(7.8 0 0 -7.8 576.622 190.963)"/><use xlink:href="#n" transform="matrix(7.8 0 0 -7.8 578.613 190.963)"/><use xlink:href="#o" transform="matrix(7.8 0 0 -7.8 582.322 190.94)"/><use xlink:href="#p" transform="matrix(7.8 0 0 -7.8 584.424 191.02)"/><use xlink:href="#t" transform="matrix(7.8 0 0 -7.8 588.473 191.028)"/><use xlink:href="#n" transform="matrix(7.8 0 0 -7.8 592.536 190.963)"/><use xlink:href="#B" transform="matrix(7.8 0 0 -7.8 596.519 191.024)"/><use xlink:href="#d" transform="matrix(7.8 0 0 -7.8 599.787 191.028)"/><use xlink:href="#e" transform="matrix(7.8 0 0 -7.8 603.908 190.963)"/><use xlink:href="#o" transform="matrix(7.8 0 0 -7.8 606.197 190.94)"/><use xlink:href="#C" transform="matrix(7.8 0 0 -7.8 608.27 191.024)"/><use xlink:href="#d" transform="matrix(7.8 0 0 -7.8 613.195 191.028)"/><use xlink:href="#n" transform="matrix(7.8 0 0 -7.8 617.348 190.963)"/><use xlink:href="#d" transform="matrix(7.8 0 0 -7.8 621.338 191.028)"/><use xlink:href="#o" transform="matrix(7.8 0 0 -7.8 625.019 190.94)"/><use xlink:href="#p" transform="matrix(7.8 0 0 -7.8 627.114 191.02)"/><use xlink:href="#d" transform="matrix(7.8 0 0 -7.8 631.174 191.028)"/><use xlink:href="#n" transform="matrix(7.8 0 0 -7.8 635.327 190.963)"/><use xlink:href="#v" transform="matrix(7.8 0 0 -7.8 639.313 191.028)"/><use xlink:href="#al" transform="matrix(7.8 0 0 -7.8 642.608 191.028)"/><use xlink:href="#v" transform="matrix(7.8 0 0 -7.8 646.637 191.028)"/></g><g data-name="P"><path d="M220.8 213.58h9.12v-8.264h-9.12z" fill="#ff0" fill-opacity=".502" fill-rule="evenodd"/><path stroke-width=".71" stroke-miterlimit="10" fill="none" stroke="#000" d="M220.8 213.58h9.12v-8.264h-9.12z"/></g><path stroke-width=".71" stroke-linejoin="round" fill="none" stroke="#000" d="M147.6 209.41h73.2M132.72 351.97l14.88-142.56M147.6 494.66l525.98-.08M132.72 351.97l14.88 142.56M244.81 78.96l428.96-.11M229.92 209.41 244.8 78.73" data-name="P"/><g data-name="P"><path d="M318 344.26h9.12v-8.264H318z" fill="#ff0" fill-opacity=".502" fill-rule="evenodd"/><path stroke-width=".71" stroke-miterlimit="8" fill="none" stroke="#000" d="M318 344.26h9.12v-8.264H318z"/></g><path stroke-width=".71" stroke-linejoin="round" fill="none" stroke="#000" d="M244.8 340.09H318M229.92 209.41l14.88 130.68" data-name="P"/><g data-name="P"><path d="M415.2 261.1h9.12v-8.264h-9.12z" fill="#ff0" fill-opacity=".502" fill-rule="evenodd"/><path stroke-width=".71" stroke-miterlimit="8" fill="none" stroke="#000" d="M415.2 261.1h9.12v-8.264h-9.12z"/></g><path stroke-width=".71" stroke-linejoin="round" fill="none" stroke="#000" d="M342 256.93h73.2M327.12 340.09 342 256.93M342.03 435.27l331.74-.02M327.12 340.09 342 435.13M439.2 138.27l233.83-.14M424.32 256.93l14.88-118.8" data-name="P"/><g data-name="P"><path d="M512.4 261.1h9.12v-8.264h-9.12z" fill="#ff0" fill-opacity=".502" fill-rule="evenodd"/><path stroke-width=".71" stroke-miterlimit="8" fill="none" stroke="#000" d="M512.4 261.1h9.12v-8.264h-9.12z"/></g><path stroke-width=".71" stroke-linejoin="round" fill="none" stroke="#000" d="M439.2 256.93h73.2M424.32 256.93h14.88M439.2 375.87l234.02-.08M424.32 256.93l14.88 118.8" data-name="P"/><g data-name="P"><path d="m682.45 201.7-9.37-4.13 9.37-4.13z" fill="#00b0f0" fill-rule="evenodd"/><path stroke-width=".71" stroke-miterlimit="8" fill="none" stroke="#000" d="m682.45 201.7-9.37-4.13 9.37-4.13z"/></g><path stroke-width=".71" stroke-linejoin="round" fill="none" stroke="#000" d="M536.4 197.53h136.68M521.52 256.93l14.88-59.4" data-name="P"/><g data-name="P"><path d="m682.45 261.1-9.37-4.13 9.37-4.13z" fill="#00b0f0" fill-rule="evenodd"/><path stroke-width=".71" stroke-miterlimit="8" fill="none" stroke="#000" d="m682.45 261.1-9.37-4.13 9.37-4.13z"/></g><path stroke-width=".71" stroke-linejoin="round" fill="none" stroke="#000" d="M536.4 256.93h136.68M521.52 256.93h14.88" data-name="P"/><g data-name="P"><path d="m682.45 320.5-9.37-4.13 9.37-4.13z" fill="#00b0f0" fill-rule="evenodd"/><path stroke-width=".71" stroke-miterlimit="8" fill="none" stroke="#000" d="m682.45 320.5-9.37-4.13 9.37-4.13z"/></g><path stroke-width=".71" stroke-linejoin="round" fill="none" stroke="#000" d="M536.4 316.33h136.68M521.52 256.93l14.88 59.4" data-name="P"/><g data-name="P"><path d="M123.6 356.14h9.12v-8.264h-9.12z" fill="#ff0" fill-opacity=".502" fill-rule="evenodd"/><path stroke-width=".71" stroke-miterlimit="8" fill="none" stroke="#000" d="M123.6 356.14h9.12v-8.264h-9.12z"/></g><path stroke-width=".71" stroke-linejoin="round" fill="none" stroke="#000" d="M84.601 352.31h39.359" data-name="P"/><g data-name="P"><path d="m682.45 82.9-9.37-4.13 9.37-4.13z" fill="#00b0f0" fill-rule="evenodd"/><path stroke-width=".71" stroke-miterlimit="8" fill="none" stroke="#000" d="m682.45 82.9-9.37-4.13 9.37-4.13z"/></g><g data-name="P"><path d="m682.45 142.3-9.37-4.13 9.37-4.13z" fill="#00b0f0" fill-rule="evenodd"/><path stroke-width=".71" stroke-miterlimit="8" fill="none" stroke="#000" d="m682.45 142.3-9.37-4.13 9.37-4.13z"/></g><g data-name="P"><path d="m682.45 379.9-9.37-4.13 9.37-4.13z" fill="#00b0f0" fill-rule="evenodd"/><path stroke-width=".71" stroke-miterlimit="8" fill="none" stroke="#000" d="m682.45 379.9-9.37-4.13 9.37-4.13z"/></g><g data-name="P"><path d="m682.45 439.3-9.37-4.13 9.37-4.13z" fill="#00b0f0" fill-rule="evenodd"/><path stroke-width=".71" stroke-miterlimit="8" fill="none" stroke="#000" d="m682.45 439.3-9.37-4.13 9.37-4.13z"/></g><g data-name="P"><path d="m682.45 498.7-9.37-4.13 9.37-4.13z" fill="#00b0f0" fill-rule="evenodd"/><path stroke-width=".71" stroke-miterlimit="8" fill="none" stroke="#000" d="m682.45 498.7-9.37-4.13 9.37-4.13z"/></g><g data-name="P"><path d="m681.41 439.56-8.33-4.26 8.33-4.26z" fill="#00b0f0" fill-rule="evenodd"/><path stroke-width=".71" stroke-miterlimit="8" fill="none" stroke="#000" d="m681.41 439.56-8.33-4.26 8.33-4.26z"/></g></svg>